<?xml version="1.0" encoding="utf-8"?>
<!-- Generator: Adobe Illustrator 16.0.0, SVG Export Plug-In . SVG Version: 6.00 Build 0)  -->
<!DOCTYPE svg PUBLIC "-//W3C//DTD SVG 1.1//EN" "http://www.w3.org/Graphics/SVG/1.1/DTD/svg11.dtd">
<svg version="1.1" id="Layer_1" xmlns="http://www.w3.org/2000/svg" xmlns:xlink="http://www.w3.org/1999/xlink" x="0px" y="0px"
	 width="220px" height="220px" viewBox="0 0 220 220" enable-background="new 0 0 220 220" xml:space="preserve">
<g>
	<path fill="#00FFB0" d="M192.475,112.324v28.063c-3.96-3.537-9.182-5.692-14.913-5.692c-12.354,0-22.369,10.014-22.369,22.37
		l-5.272,5.272c-1.397,1.397-3.295,2.184-5.272,2.184H71.783c-1.978,0-3.874-0.786-5.272-2.184
		c-4.856-4.856-19.333-19.333-27.643-27.643v-12.616c0-5.761,0.299-11.51,0.895-17.221l0.106,0.012h36.284v44.739h64.126v-29.826
		c0-4.12,3.338-7.458,7.456-7.458H192.475z"/>
	<path fill="none" d="M160.412,45.215H36.632c-4.119,0-7.456,3.336-7.456,7.458c0,4.114,3.34,7.456,7.456,7.456h11.931
		c-5.741,14.355-9.448,29.408-11.038,44.729l0.106,0.012h36.284c0-10.068,0-35.575,0-44.741h71.584c4.119,0,7.456,3.338,7.456,7.456
		v44.74h37.282V75.042C190.237,58.57,176.883,45.215,160.412,45.215z"/>
	<path fill="none" d="M199.933,157.064c-9.1,0-34.137,0-44.74,0c0-12.356,10.013-22.37,22.369-22.37
		C189.894,134.694,199.933,144.681,199.933,157.064z"/>
	<path fill="#00FFB0" d="M162.649,157.064h29.825c0,8.235-6.677,14.914-14.913,14.914
		C169.326,171.979,162.649,165.3,162.649,157.064z"/>
	<path fill="#FCFCFC" d="M155.192,67.584v44.74h-7.458c-4.118,0-7.456,3.338-7.456,7.458v29.826h-24.606v-89.48h32.063
		C151.855,60.128,155.192,63.467,155.192,67.584z"/>
	<path fill="#00FFB0" d="M115.672,119.782v29.826H91.065v-22.37c0-4.121,3.336-7.456,7.456-7.456H115.672z"/>
	<path fill="none" d="M61.239,157.064c-9.098,0-34.134,0-44.74,0c0-12.356,10.015-22.37,22.369-22.37L61.239,157.064z"/>
	<path fill="#00FFB0" d="M23.956,157.064h29.825c0,8.235-6.678,14.914-14.914,14.914S23.956,165.3,23.956,157.064z"/>
	<path fill="none" d="M36.684,107.053c1.351,1.35,2.184,3.213,2.184,5.271c0,4.121-3.335,7.458-7.456,7.458h-7.456v-14.913h7.456
		C33.471,104.869,35.334,105.703,36.684,107.053z"/>
	<path fill="#000A64" d="M177.562,93.684c-2.058,0-3.729,1.671-3.729,3.728c0,2.059,1.671,3.729,3.729,3.729
		c2.059,0,3.729-1.671,3.729-3.729C181.291,95.354,179.62,93.684,177.562,93.684z"/>
	<path fill="#000A64" d="M196.203,75.042c0-18.502-15.052-33.555-33.554-33.555H38.868c-6.167,0-11.184,5.017-11.184,11.186
		c0,6.18,5.006,11.179,11.184,11.179h6.522c-4.506,12.406-7.553,25.296-9.086,38.411c-1.507-0.732-3.17-1.122-4.892-1.122h-7.456
		c-2.059,0-3.729,1.669-3.729,3.729v14.913c0,2.057,1.671,3.728,3.729,3.728h7.456c1.307,0,2.562-0.227,3.728-0.641v8.37
		c-12.63,1.812-22.37,12.702-22.37,25.825c0,2.059,1.669,3.729,3.728,3.729h4.104c1.732,8.5,9.263,14.913,18.265,14.913
		c9.005,0,16.536-6.413,18.267-14.913h2.56l4.18,4.18c2.083,2.082,4.965,3.277,7.909,3.277h72.865c2.944,0,5.826-1.195,7.909-3.277
		l4.182-4.18h2.557c1.733,8.5,9.265,14.913,18.267,14.913c9.005,0,16.533-6.413,18.268-14.913h4.104c2.059,0,3.728-1.67,3.728-3.729
		c0-6.878-2.648-13.35-7.457-18.259V75.042z M159.292,153.337c1.698-8.415,9.152-14.915,18.27-14.915
		c8.951,0,16.542,6.349,18.271,14.915H159.292z M35.14,52.673c0-2.057,1.672-3.729,3.728-3.729h123.782
		c14.391,0,26.098,11.708,26.098,26.099v33.555h-29.825V67.584c0-6.167-5.019-11.184-11.188-11.184c-4.036,0-102.458,0-108.867,0
		C36.809,56.401,35.14,54.73,35.14,52.673z M147.734,108.597c-6.167,0-11.184,5.017-11.184,11.186v26.097H119.4V63.856h28.334
		c2.058,0,3.729,1.672,3.729,3.728v41.012H147.734z M94.793,145.879v-18.641c0-2.056,1.672-3.729,3.728-3.729h13.423v22.369H94.793z
		 M79.88,145.879v-44.738h11.878l6.364,6.363c1.458,1.456,3.815,1.456,5.273,0c1.455-1.457,1.455-3.816,0-5.272l-7.458-7.455
		c-0.698-0.7-1.648-1.093-2.635-1.093H79.88V63.856h32.064v52.196H98.521c-6.167,0-11.186,5.019-11.186,11.186v18.641H79.88z
		 M72.424,63.856v37.284H43.957c1.649-12.757,4.799-25.268,9.393-37.284H72.424z M31.412,116.053h-3.728v-7.456h3.728
		c2.059,0,3.728,1.669,3.728,3.728C35.14,114.38,33.469,116.053,31.412,116.053z M37.387,138.484l14.85,14.853H20.602
		C22.24,145.31,29.051,139.145,37.387,138.484z M38.868,168.25c-4.859,0-9.003-3.12-10.542-7.46h21.088
		C47.873,165.13,43.729,168.25,38.868,168.25z M144.647,160.793H71.783c-0.979,0-1.94-0.398-2.637-1.092l-26.55-26.55v-11.073
		c0-4.49,0.192-9.01,0.565-13.481h29.263v41.012c0,2.06,1.667,3.729,3.728,3.729h64.126c2.061,0,3.729-1.669,3.729-3.729v-29.826
		c0-2.056,1.672-3.729,3.728-3.729h41.013v17.436c-3.469-1.646-7.279-2.522-11.186-2.522c-13.871,0-25.22,10.802-26.044,24.501
		l-4.234,4.234C146.59,160.395,145.631,160.793,144.647,160.793z M177.562,168.25c-4.859,0-9.005-3.12-10.542-7.46h21.086
		C186.566,165.13,182.423,168.25,177.562,168.25z"/>
	<path fill="#000A64" d="M168.235,65.357c3.453,2,5.598,5.712,5.598,9.685V82.5c0,2.059,1.67,3.728,3.729,3.728
		s3.729-1.669,3.729-3.728v-7.458c0-6.625-3.571-12.808-9.315-16.136c-1.781-1.035-4.063-0.427-5.097,1.355
		C165.847,62.042,166.454,64.324,168.235,65.357z"/>
	<path fill="#000A64" d="M61.239,116.053h-7.458c-2.059,0-3.728,1.671-3.728,3.729c0,2.057,1.669,3.728,3.728,3.728h7.458
		c2.06,0,3.728-1.671,3.728-3.728C64.967,117.724,63.299,116.053,61.239,116.053z"/>
</g>
</svg>
