<?xml version="1.0" encoding="utf-8"?>
<!-- Generator: Adobe Illustrator 16.0.0, SVG Export Plug-In . SVG Version: 6.00 Build 0)  -->
<!DOCTYPE svg PUBLIC "-//W3C//DTD SVG 1.1//EN" "http://www.w3.org/Graphics/SVG/1.1/DTD/svg11.dtd">
<svg version="1.1" id="Layer_1" xmlns="http://www.w3.org/2000/svg" xmlns:xlink="http://www.w3.org/1999/xlink" x="0px" y="0px"
	 width="220px" height="220px" viewBox="0 0 220 220" enable-background="new 0 0 220 220" xml:space="preserve">
<g>
	<g>
		<circle fill="#00FFB0" cx="56.264" cy="147.78" r="11.932"/>
		<path fill="#00FFB0" d="M172.602,147.78c0,6.593-5.338,11.932-11.931,11.932s-11.934-5.339-11.934-11.932
			c0-3.58,1.582-6.773,4.059-8.949c2.118-1.85,4.86-2.983,7.875-2.983C167.264,135.848,172.602,141.188,172.602,147.78z"/>
		<path fill="#00FFB0" d="M184.534,73.204h-32.813v29.832h41.765V82.153C193.485,77.201,189.487,73.204,184.534,73.204z"/>
		<path fill="#00FFB0" d="M187.518,117.948h-5.965v11.932h11.933v-5.965C193.485,120.635,190.8,117.948,187.518,117.948z"/>
	</g>
	<g>
		
			<rect x="14.497" y="159.803" transform="matrix(1 -0.0024 0.0024 1 -0.3884 0.1205)" fill="#000A64" width="71.595" height="5.965"/>
		<rect x="92.06" y="159.712" fill="#000A64" width="11.932" height="5.967"/>
		<rect x="109.959" y="159.712" fill="#000A64" width="77.559" height="5.967"/>
		<rect x="193.485" y="159.712" fill="#000A64" width="11.932" height="5.967"/>
		<rect x="53.341" y="144.796" fill="#000A64" width="5.965" height="5.968"/>
		<rect x="157.747" y="144.796" fill="#000A64" width="5.968" height="5.968"/>
		<path fill="#000A64" d="M196.515,132.864v-8.949v-17.899v-5.965V82.153c0-6.581-5.352-11.933-11.932-11.933h-29.83v-8.116
			l-23.864-7.957v16.07v5.965v38.781H32.446c-4.933,0-8.947,4.014-8.947,8.948v26.848h18.198
			c1.388,6.798,7.412,11.933,14.615,11.933c7.204,0,13.226-5.135,14.613-11.933h75.181c1.385,6.798,7.408,11.933,14.612,11.933
			c7.205,0,13.229-5.135,14.614-11.933h21.183V132.864z M136.854,62.426l11.933,3.976v3.815h-11.933V62.426z M56.312,156.73
			c-4.933,0-8.95-4.019-8.95-8.95c0-4.933,4.017-8.949,8.95-8.949s8.948,4.017,8.948,8.949
			C65.26,152.712,61.245,156.73,56.312,156.73z M147.015,141.939c-0.384,0.902-0.69,1.842-0.893,2.805
			c-0.002,0.018-0.012,0.035-0.017,0.052H70.925c0-0.003-0.003-0.006-0.003-0.006c-0.011-0.055-0.035-0.103-0.047-0.158
			c-0.185-0.858-0.448-1.688-0.772-2.483c-0.117-0.284-0.272-0.544-0.407-0.817c-0.264-0.548-0.538-1.086-0.864-1.592
			c-0.191-0.297-0.407-0.568-0.618-0.85c-0.333-0.442-0.677-0.878-1.06-1.282c-0.25-0.264-0.509-0.513-0.777-0.76
			c-0.4-0.371-0.818-0.714-1.26-1.039c-0.292-0.218-0.587-0.426-0.897-0.623c-0.475-0.299-0.966-0.555-1.473-0.8
			c-0.317-0.151-0.628-0.315-0.953-0.447c-0.576-0.226-1.17-0.397-1.775-0.552c-0.297-0.078-0.579-0.181-0.886-0.239
			c-0.918-0.178-1.863-0.286-2.832-0.286s-1.917,0.108-2.834,0.286c-0.304,0.061-0.585,0.161-0.883,0.239
			c-0.605,0.154-1.203,0.326-1.775,0.552c-0.327,0.132-0.638,0.293-0.953,0.447c-0.508,0.245-1.001,0.501-1.477,0.8
			c-0.31,0.197-0.601,0.405-0.897,0.623c-0.438,0.325-0.854,0.668-1.26,1.039c-0.267,0.247-0.528,0.496-0.778,0.76
			c-0.379,0.404-0.726,0.835-1.058,1.282c-0.21,0.281-0.426,0.553-0.617,0.85c-0.329,0.506-0.6,1.042-0.868,1.592
			c-0.132,0.273-0.289,0.533-0.403,0.817c-0.329,0.796-0.589,1.625-0.775,2.483c-0.011,0.056-0.033,0.104-0.047,0.157
			c0,0-0.004,0.004-0.004,0.007H29.463v-20.881c0-1.645,1.34-2.983,2.983-2.983h98.443v20.883h16.164
			C147.038,141.852,147.031,141.897,147.015,141.939z M160.718,156.73c-4.934,0-8.948-4.019-8.948-8.95
			c0-0.642,0.069-1.273,0.203-1.892c0.402-1.847,1.39-3.541,2.836-4.817c1.659-1.444,3.757-2.24,5.906-2.24
			c4.936,0,8.951,4.017,8.951,8.949C169.666,152.712,165.653,156.73,160.718,156.73z M190.551,144.796h-15.219
			c0-0.003-0.003-0.006-0.003-0.006c-0.011-0.055-0.034-0.103-0.048-0.158c-0.186-0.858-0.446-1.688-0.771-2.483
			c-0.116-0.284-0.271-0.544-0.406-0.817c-0.265-0.548-0.535-1.086-0.864-1.592c-0.191-0.297-0.407-0.568-0.618-0.85
			c-0.336-0.442-0.678-0.878-1.058-1.282c-0.253-0.264-0.512-0.513-0.781-0.76c-0.398-0.371-0.815-0.714-1.257-1.039
			c-0.294-0.218-0.589-0.426-0.898-0.623c-0.474-0.299-0.967-0.555-1.474-0.8c-0.316-0.151-0.626-0.315-0.955-0.447
			c-0.571-0.226-1.17-0.397-1.773-0.552c-0.296-0.078-0.581-0.181-0.884-0.239c-0.919-0.178-1.865-0.286-2.833-0.286
			c-0.858,0-1.701,0.087-2.536,0.232c-0.272,0.049-0.53,0.135-0.797,0.197c-0.559,0.128-1.114,0.268-1.653,0.463
			c-0.304,0.107-0.593,0.25-0.889,0.379c-0.487,0.208-0.964,0.429-1.426,0.69c-0.298,0.166-0.579,0.355-0.864,0.544
			c-0.253,0.164-0.52,0.299-0.761,0.477h-14.929v-14.915h41.764v11.933h11.934V144.796L190.551,144.796z M190.551,126.898h-5.968
			v-5.967h2.983c1.645,0,2.984,1.339,2.984,2.983V126.898z M190.551,115.477c-0.251-0.092-0.521-0.138-0.783-0.206
			c-0.176-0.044-0.343-0.101-0.526-0.137c-0.544-0.104-1.103-0.17-1.678-0.17h-8.949h-41.764V76.183h11.932v29.833h41.765
			L190.551,115.477L190.551,115.477z M190.551,100.051h-35.798V76.186h29.83c3.292,0,5.968,2.676,5.968,5.968V100.051z"/>
	</g>
</g>
</svg>
