<?xml version="1.0" encoding="utf-8"?>
<!-- Generator: Adobe Illustrator 16.0.0, SVG Export Plug-In . SVG Version: 6.00 Build 0)  -->
<!DOCTYPE svg PUBLIC "-//W3C//DTD SVG 1.1//EN" "http://www.w3.org/Graphics/SVG/1.1/DTD/svg11.dtd">
<svg version="1.1" id="Layer_1" xmlns="http://www.w3.org/2000/svg" xmlns:xlink="http://www.w3.org/1999/xlink" x="0px" y="0px"
	 width="220px" height="220px" viewBox="0 0 220 220" enable-background="new 0 0 220 220" xml:space="preserve">
<g>
	<g>
		<circle fill="#00FFB0" cx="54.248" cy="131.476" r="11.929"/>
		<circle fill="#00FFB0" cx="158.627" cy="131.476" r="11.929"/>
		<path fill="#00FFB0" d="M36.354,101.653h23.858h32.805h32.805h41.751l11.929,11.93h11.93c0-6.592-5.34-11.93-11.93-11.93h-8.947
			l-29.822-29.821h-14.91H93.017H60.212H30.39l-5.637,33.907c-0.209,0.597-0.328,1.223-0.328,1.88v5.964h11.928V101.653z"/>
	</g>
	<g>
		
			<rect x="12.495" y="143.495" transform="matrix(1 -0.0029 0.0029 1 -0.4215 0.1396)" fill="#000A64" width="71.575" height="5.965"/>
		<rect x="90.035" y="143.404" fill="#000A64" width="11.929" height="5.966"/>
		<rect x="107.928" y="143.404" fill="#000A64" width="77.54" height="5.966"/>
		<rect x="191.432" y="143.404" fill="#000A64" width="11.928" height="5.966"/>
		<rect x="51.325" y="128.492" fill="#000A64" width="5.964" height="5.966"/>
		<rect x="155.703" y="128.492" fill="#000A64" width="5.964" height="5.966"/>
		<path fill="#000A64" d="M179.549,98.672h-7.711l-28.075-28.074V56.92H27.456v14.664l-5.588,33.64
			c-0.233,0.79-0.376,1.593-0.376,2.396v2.981v5.964v17.894h18.195c1.387,6.797,7.407,11.931,14.609,11.931
			c7.203,0,13.224-5.134,14.611-11.931h75.16c1.385,6.797,7.406,11.931,14.608,11.931s13.224-5.134,14.61-11.931h21.178v-17.894
			v-2.981l-0.303-2.982l0,0C192.772,103.804,186.75,98.672,179.549,98.672z M177.802,104.637h1.747c3.889,0,7.205,2.492,8.438,5.964
			h-7.204l-5.964-5.964H177.802z M163.403,98.672h-2.981h-1.918h-7.329h-22.322V74.814h10.693L163.403,98.672z M146.915,104.637
			l-10.649,14.91h-7.413v-14.91H146.915z M33.42,62.884h104.379v5.965h-8.946h-5.966H96.047h-5.965H63.243h-5.965H33.42V62.884z
			 M96.047,98.672V74.814h26.839v23.857H96.047z M122.887,104.637v14.91H96.047v-14.91H122.887z M90.082,74.814v23.857H63.243
			V74.814H90.082z M32.967,74.814h24.311v23.857H39.384H33.42h-2.982c-0.49,0-0.972,0.042-1.443,0.118c-0.003,0-0.01,0-0.013,0
			L32.967,74.814z M27.456,107.884l0.229-1.303c0.42-1.146,1.533-1.944,2.753-1.944h2.982v5.964h-5.964V107.884z M54.295,140.423
			c-4.932,0-8.946-4.013-8.946-8.947c0-4.933,4.014-8.945,8.946-8.945c4.934,0,8.948,4.013,8.948,8.945
			C63.243,136.41,59.229,140.423,54.295,140.423z M158.674,140.423c-4.932,0-8.947-4.013-8.947-8.947
			c0-4.933,4.016-8.945,8.947-8.945c4.933,0,8.947,4.013,8.947,8.945C167.621,136.41,163.606,140.423,158.674,140.423z
			 M188.498,128.492h-15.214c0-0.002-0.004-0.003-0.004-0.007c-0.012-0.054-0.035-0.104-0.048-0.158
			c-0.184-0.859-0.446-1.685-0.771-2.481c-0.115-0.288-0.275-0.549-0.407-0.826c-0.263-0.544-0.535-1.077-0.86-1.584
			c-0.191-0.295-0.408-0.569-0.621-0.85c-0.334-0.443-0.677-0.874-1.055-1.279c-0.251-0.267-0.511-0.513-0.779-0.759
			c-0.398-0.372-0.817-0.714-1.258-1.039c-0.291-0.219-0.586-0.427-0.895-0.622c-0.474-0.298-0.969-0.556-1.477-0.801
			c-0.315-0.152-0.623-0.313-0.95-0.444c-0.574-0.229-1.174-0.396-1.778-0.551c-0.295-0.079-0.576-0.18-0.88-0.239
			c-0.918-0.179-1.863-0.287-2.833-0.287c-0.968,0-1.914,0.108-2.833,0.287c-0.302,0.06-0.584,0.16-0.88,0.239
			c-0.605,0.156-1.205,0.323-1.776,0.551c-0.329,0.132-0.637,0.292-0.953,0.444c-0.506,0.245-1,0.503-1.476,0.801
			c-0.31,0.195-0.603,0.406-0.894,0.622c-0.439,0.325-0.856,0.667-1.26,1.039c-0.269,0.246-0.528,0.492-0.777,0.759
			c-0.379,0.401-0.722,0.836-1.057,1.279c-0.211,0.28-0.43,0.555-0.62,0.85c-0.325,0.504-0.597,1.039-0.858,1.584
			c-0.135,0.277-0.292,0.538-0.409,0.826c-0.325,0.797-0.587,1.625-0.771,2.481c-0.013,0.054-0.036,0.104-0.049,0.158
			c0,0.004-0.002,0.005-0.002,0.007H68.906c0-0.002-0.003-0.003-0.003-0.007c-0.012-0.054-0.035-0.104-0.047-0.158
			c-0.186-0.859-0.448-1.685-0.772-2.481c-0.116-0.288-0.274-0.549-0.409-0.826c-0.263-0.544-0.533-1.077-0.859-1.584
			c-0.191-0.295-0.407-0.569-0.62-0.85c-0.334-0.443-0.677-0.874-1.056-1.279c-0.25-0.267-0.51-0.513-0.778-0.759
			c-0.4-0.372-0.817-0.714-1.258-1.039c-0.293-0.219-0.585-0.427-0.895-0.622c-0.474-0.298-0.969-0.556-1.476-0.801
			c-0.316-0.152-0.624-0.313-0.951-0.444c-0.573-0.229-1.172-0.396-1.778-0.551c-0.294-0.079-0.575-0.18-0.879-0.239
			c-0.918-0.179-1.864-0.287-2.833-0.287c-0.97,0-1.915,0.108-2.834,0.287c-0.301,0.06-0.584,0.16-0.879,0.239
			c-0.606,0.156-1.205,0.323-1.778,0.551c-0.328,0.132-0.634,0.292-0.951,0.444c-0.508,0.245-1.002,0.503-1.476,0.801
			c-0.31,0.195-0.603,0.406-0.895,0.622c-0.438,0.325-0.856,0.667-1.258,1.039c-0.269,0.246-0.528,0.492-0.779,0.759
			c-0.378,0.401-0.721,0.836-1.055,1.279c-0.211,0.28-0.429,0.555-0.62,0.85c-0.324,0.504-0.596,1.039-0.859,1.584
			c-0.134,0.277-0.292,0.538-0.408,0.826c-0.325,0.797-0.588,1.625-0.773,2.481c-0.011,0.054-0.035,0.104-0.048,0.158
			c0,0.004-0.002,0.005-0.002,0.007H27.456v-11.928h11.929v-11.928h17.893h5.965h26.839v2.982H69.207v5.964h20.875v11.928h32.805
			h5.966h10.481l14.911-20.874h12.142l11.928,11.928h10.184V128.492z"/>
	</g>
</g>
</svg>
