<?xml version="1.0" encoding="utf-8"?>
<!-- Generator: Adobe Illustrator 16.0.0, SVG Export Plug-In . SVG Version: 6.00 Build 0)  -->
<!DOCTYPE svg PUBLIC "-//W3C//DTD SVG 1.1//EN" "http://www.w3.org/Graphics/SVG/1.1/DTD/svg11.dtd">
<svg version="1.1" xmlns="http://www.w3.org/2000/svg" xmlns:xlink="http://www.w3.org/1999/xlink" x="0px" y="0px" width="1024px"
	 height="1024px" viewBox="0 0 1024 1024" enable-background="new 0 0 1024 1024" xml:space="preserve">
<g id="Layer_1">
	<path fill="#F9F9F9" d="M0,0h1024v1024H0V0z"/>
	<path fill="#EAB52F" d="M456.426,905.023h15.913v8.25h-15.913V905.023z"/>
	<g opacity="0.5">
		<path fill="#13AA13" d="M713.204,983.028v-10.915l2.979,10.915l4.464-15.341v11.361l12.894-5.202l-7.601,7.41L713.204,983.028z"/>
		<g>
			<path fill="#42210B" d="M744.585,930.934l-24.417,62.735l-6.494-2.528l24.417-62.733L744.585,930.934z"/>
			<path fill="#42210B" d="M766.288,942.173c-0.965,3.789-4.817,6.079-8.607,5.115l-60.605-15.43
				c-3.789-0.967-6.078-4.818-5.114-8.607l3.358-13.194c0.965-3.789,4.817-6.078,8.606-5.112l60.606,15.43
				c3.789,0.965,6.079,4.817,5.114,8.607L766.288,942.173L766.288,942.173z"/>
		</g>
		
			<text transform="matrix(0.9685 0.2491 -0.2491 0.9685 713.2041 925.8594)" fill="#D9E021" font-family="'Roboto-Bold'" font-size="14.16">TAXI!</text>
		<path fill="#F4E451" d="M0,982.913h1027.176V1024H0V982.913z"/>
		<path fill="#42210B" d="M0,999.64h42.538v9.948H0V999.64z M275.912,999.614h69.284v9.95h-69.284V999.614z M575.912,999.614h68.313
			v9.95h-68.313V999.614z M791.13,999.64h70.496v9.948H791.13V999.64z"/>
		<path fill="#29CC29" d="M336.41,978.538c0,0,8.05-30.924,62.268-30.924c0,0,24.147-36.854,67.354-36.854
			c54.044,0,70.74,37.278,70.74,37.278s34.734,2.965,45.749,30.5H336.41z"/>
		<path fill="#FFFFFF" d="M407.362,947.3c0,0,22.38-30.058,57.902-30.058c40.666,0,63.652,30.058,63.652,30.058H407.362z"/>
		<path fill="#29CC29" d="M474.107,913.273h3.534v41.988h-3.534V913.273z"/>
		<path fill="#39B54A" d="M586.99,980.31c0,2.24-1.814,4.058-4.053,4.058H336c-2.239-0.002-4.054-1.817-4.056-4.058l0,0
			c0-2.24,1.816-4.056,4.056-4.056h246.938C585.176,976.254,586.99,978.069,586.99,980.31L586.99,980.31z"/>
		<path fill="#EAB52F" d="M347.64,957.8c-0.022-0.01-0.048-0.017-0.07-0.024l-4.597,9.728c0.021,0.015,0.043,0.027,0.066,0.039
			c2.688,1.271,5.896,0.12,7.168-2.57S350.323,959.071,347.64,957.8L347.64,957.8z"/>
		<circle fill="#474134" cx="394.985" cy="985.618" r="18.123"/>
		<circle fill="#776F5E" cx="394.985" cy="985.618" r="11.051"/>
		<circle fill="#474134" cx="525.529" cy="985.618" r="18.123"/>
		<circle fill="#776F5E" cx="525.529" cy="985.618" r="11.051"/>
		<path fill="#EAB52F" d="M474.107,952.026c0,1.057-0.857,1.916-1.915,1.916h-8.546c-1.06-0.002-1.916-0.858-1.918-1.916l0,0
			c0.002-1.06,0.858-1.916,1.918-1.917h8.546C473.25,950.109,474.107,950.967,474.107,952.026L474.107,952.026z M528.917,952.026
			c0,1.057-0.854,1.916-1.914,1.916h-8.545c-1.058-0.001-1.916-0.858-1.918-1.916l0,0c0.002-1.06,0.859-1.916,1.918-1.917H527
			C528.06,950.109,528.916,950.967,528.917,952.026L528.917,952.026L528.917,952.026z M932.171,910.273h14.077v7.3H932.17
			L932.171,910.273z"/>
		<path fill="#CC3D2E" d="M825.99,975.313c0,0,7.12-27.358,55.09-27.358c0,0,21.365-32.605,59.59-32.605
			c47.813,0,62.584,32.98,62.584,32.98s30.73,2.623,40.479,26.983H825.99L825.99,975.313z"/>
		<path fill="#FFFFFF" d="M888.762,947.685c0,0,19.803-26.594,51.23-26.594c35.978,0,56.313,26.594,56.313,26.594H888.762z"/>
		<path fill="#CC3D2E" d="M947.813,917.573h3.13v37.148h-3.13V917.573z"/>
		<path fill="#E54033" d="M1047.682,976.88c0,1.98-1.604,3.587-3.585,3.587h-218.47c-1.979-0.001-3.586-1.605-3.588-3.587l0,0
			c0-1.98,1.605-3.588,3.588-3.589h218.47C1046.077,973.294,1047.682,974.899,1047.682,976.88L1047.682,976.88z"/>
		<path fill="#EAB52F" d="M835.926,956.966c-0.02-0.01-0.043-0.016-0.062-0.022l-4.066,8.604c0.018,0.013,0.037,0.024,0.058,0.035
			c2.38,1.123,5.218,0.104,6.342-2.274C839.316,960.93,838.301,958.093,835.926,956.966L835.926,956.966z"/>
		<circle fill="#474134" cx="877.813" cy="981.577" r="16.034"/>
		<circle fill="#776F5E" cx="877.813" cy="981.576" r="9.777"/>
		<circle fill="#474134" cx="993.308" cy="981.577" r="16.034"/>
		<circle fill="#776F5E" cx="993.308" cy="981.576" r="9.777"/>
		<path fill="#EAB52F" d="M947.813,951.857c0,0.935-0.76,1.693-1.692,1.693h-7.562c-0.938,0-1.695-0.76-1.695-1.693l0,0
			c0-0.938,0.76-1.695,1.695-1.695h7.562C947.056,950.162,947.813,950.92,947.813,951.857L947.813,951.857z M996.303,951.857
			c0,0.935-0.757,1.693-1.69,1.693h-7.562c-0.937,0-1.695-0.76-1.695-1.693l0,0c0-0.938,0.761-1.695,1.695-1.695h7.562
			c0.937,0,1.692,0.758,1.692,1.695l0,0H996.303z"/>
	</g>
	<path opacity="0.5" fill="#C7E2F9" d="M1060.885,666.655c-0.623-15.242-15.47-27.443-33.708-27.443
		c-18.237,0-33.1,12.2-33.7,27.443c-18.1,0.388-32.565,9.715-32.565,21.166c0,11.702,15.106,21.188,33.74,21.188
		c13.984,0,25.979-5.343,31.097-12.955c0.479,0.021,0.96,0.031,1.439,0.032c0.48,0,0.966-0.014,1.444-0.032
		c5.114,7.612,17.101,12.955,31.094,12.955c18.635,0,33.737-9.483,33.737-21.188c0-11.454-14.475-20.778-32.567-21.166H1060.885z
		 M529.717,529.025c0,3.979-13.979,7.202-31.229,7.202c-12.942,0-24.049-1.815-28.782-4.403l-1.336,0.01
		c-0.445,0-0.892-0.004-1.335-0.01c-4.734,2.587-15.838,4.403-28.785,4.403c-17.247,0-31.23-3.225-31.23-7.202
		c0-3.895,13.402-7.063,30.146-7.195c0.575-5.18,14.32-9.33,31.205-9.33s30.625,4.148,31.2,9.33
		C516.316,521.962,529.716,525.132,529.717,529.025L529.717,529.025z M120.257,652.167c-0.624-15.243-15.47-27.443-33.7-27.443
		s-33.1,12.2-33.7,27.443c-18.1,0.388-32.567,9.715-32.567,21.166c0,11.702,15.105,21.188,33.74,21.188
		c13.984,0,25.98-5.345,31.096-12.954c0.481,0.02,0.962,0.029,1.443,0.029c0.48,0,0.963-0.014,1.44-0.028
		c5.116,7.6,17.112,12.953,31.096,12.953c18.634,0,33.738-9.485,33.738-21.188c0-11.45-14.477-20.778-32.566-21.166H120.257z
		 M776.561,639.9c-0.442-10.954-11.111-19.722-24.224-19.722c-13.104,0-23.772,8.766-24.223,19.722
		c-13,0.272-23.4,6.979-23.4,15.198c0,8.407,10.856,15.224,24.246,15.224c10.047,0,18.67-3.836,22.346-9.309
		c0.345,0.015,0.689,0.021,1.034,0.021c0.346,0,0.694-0.01,1.04-0.021c3.675,5.472,12.295,9.309,22.344,9.309
		c13.388,0,24.242-6.813,24.242-15.224C799.961,646.873,789.559,640.171,776.561,639.9L776.561,639.9z M402.604,697.6
		c-0.371,6.271-9.27,11.285-20.2,11.285c-10.93,0-19.826-5.02-20.2-11.285c-10.84-0.164-19.515-3.994-19.515-8.698
		c0-4.81,9.052-8.714,20.218-8.714c8.378,0,15.563,2.197,18.633,5.329l0.864-0.014c0.288,0.001,0.575,0.005,0.862,0.014
		c3.065-3.13,10.254-5.329,18.634-5.329c11.166,0,20.216,3.899,20.216,8.714c-0.001,4.716-8.677,8.548-19.516,8.698H402.604z"/>
	<g opacity="0.2">
		<path fill="#08ABAF" d="M440.97,779.428c0,3.318-2.689,6.009-6.009,6.009l0,0c-3.318-0.001-6.008-2.689-6.008-6.009l0,0
			c0.001-3.316,2.689-6.007,6.008-6.008l0,0C438.279,773.421,440.969,776.11,440.97,779.428L440.97,779.428z"/>
		<path fill="#DBC62E" d="M755.715,809.922c0,3.318-2.689,6.009-6.009,6.009l0,0c-3.318,0-6.009-2.689-6.009-6.009l0,0
			c0.001-3.318,2.689-6.008,6.009-6.008l0,0C753.023,803.914,755.714,806.604,755.715,809.922L755.715,809.922z"/>
		<path fill="#288F98" d="M405.607,726.915c-10.406,5.82-14.125,18.972-8.309,29.377c6.22,11.127,37.08,22.078,37.08,22.078
			s7.288-31.198,0.605-43.15C429.165,724.814,416.014,721.097,405.607,726.915L405.607,726.915z M422.195,756.579
			c-6.404,3.582-14.497,1.292-18.078-5.11c-3.581-6.4-1.295-14.497,5.106-18.08c6.405-3.578,14.498-1.29,18.08,5.112
			c3.582,6.403,1.293,14.5-5.1,18.078H422.195z"/>
		<path fill="#EA5347" d="M68.143,791.977c0,3.319-2.691,6.011-6.01,6.011l0,0c-3.318-0.002-6.007-2.691-6.008-6.011l0,0
			c0.001-3.316,2.69-6.007,6.008-6.008l0,0C65.452,785.969,68.142,788.658,68.143,791.977L68.143,791.977z"/>
		<path fill="#CC3D2E" d="M79.186,728.56c-11.563-3.18-23.513,3.618-26.693,15.185c-1.45,5.278-0.817,10.636,1.394,15.202
			l-0.01,0.005l7.865,33.028l23.61-24.34c4.258-2.797,7.56-7.1,9.016-12.39c3.177-11.564-3.62-23.513-15.184-26.689L79.186,728.56
			L79.186,728.56z M70.142,761.46c-6.607-1.817-10.49-8.646-8.675-15.253c1.818-6.606,8.646-10.489,15.253-8.674
			c6.607,1.815,10.492,8.645,8.677,15.252C83.582,759.392,76.751,763.275,70.142,761.46L70.142,761.46z"/>
		<path fill="#EA5347" d="M621.184,716.482c0,1.883-1.525,3.408-3.409,3.408l0,0l0,0c-1.884,0-3.41-1.525-3.41-3.408l0,0
			c0-1.885,1.526-3.41,3.41-3.41l0,0c1.882,0,3.409,1.525,3.409,3.398l0,0V716.482z"/>
		<path fill="#CC3D2E" d="M627.45,680.49c-6.563-1.807-13.347,2.053-15.15,8.616c-0.823,2.994-0.464,6.034,0.792,8.628l-0.006,0.003
			l4.464,18.745l13.4-13.813c2.506-1.641,4.326-4.142,5.117-7.031C637.87,689.075,634.012,682.294,627.45,680.49z M622.316,699.162
			c-3.748-1.03-5.954-4.905-4.925-8.656c1.031-3.751,4.906-5.954,8.656-4.923s5.955,4.906,4.926,8.656
			S626.067,700.193,622.316,699.162z"/>
		<path fill="#F9DF23" d="M758.146,764.738c-11.077-2.045-21.722,5.275-23.766,16.354c-0.933,5.062,0.102,10.021,2.524,14.117
			l-0.009,0.006l0.031,0.04c1.273,2.13,2.922,4.011,4.866,5.552l7.99,9.114l10.672-5.634c7.014-2.173,12.616-8.065,14.04-15.788
			c2.05-11.075-5.273-21.716-16.354-23.76L758.146,764.738z M752.136,797.308c-6.905-1.275-11.471-7.908-10.196-14.814
			c1.275-6.908,7.909-11.475,14.814-10.195c6.908,1.273,11.475,7.906,10.197,14.814
			C765.675,794.017,759.043,798.582,752.136,797.308L752.136,797.308z"/>
	</g>
</g>
<g id="Layer_2">
	<path fill="#F4E451" d="M0-1.264v109.129h0.594C10.896,324.986,236.679,498.5,513.701,498.5
		c277.021,0,502.805-173.514,513.105-390.635h0.369V-1.264H0z"/>
	<path fill="#662D91" d="M0-1.264v92.82h0.594c10.301,219.424,236.084,394.78,513.107,394.78
		c277.021,0,502.805-175.356,513.105-394.78h0.369v-92.82H0z"/>
</g>
</svg>
