<svg xmlns="http://www.w3.org/2000/svg" width="1024" height="1024"><path fill="#f9f9f9" d="M0 0h1024v1024H0z"/><path fill="#f4e451" d="M.001 0v415.282c38.247 6.48 84.504 10.928 140.396 11.778C339.66 430.098 780.026 251.944 1024 186.432V0H.001z"/><path fill="#662d91" d="M.001 0v383.824c38.247 5.99 84.504 10.1 140.396 10.887C339.66 397.52 780.026 246.98 1024 186.43V0H.001z"/><path fill="#13aa13" d="M713.204 983.028v-10.915l2.98 10.915 4.463-15.34v11.362l12.893-5.202-7.6 7.41z"/><g fill="#42210b"><path d="M744.585 930.934l-24.417 62.735-6.494-2.528 24.417-62.735z"/><path d="M766.288 942.173a7.08 7.08 0 0 1-8.607 5.115l-60.607-15.43a7.08 7.08 0 0 1-5.114-8.607l3.358-13.194a7.08 7.08 0 0 1 8.608-5.114l60.606 15.43a7.08 7.08 0 0 1 5.115 8.607l-3.36 13.193z"/></g><text transform="matrix(.9685 .2491 -.2491 .9685 713.2041 925.8594)" fill="#d9e021" font-family="Roboto-Bold" font-size="14.16">TAXI!</text><path fill="#f4e451" d="M0 982.913h1027.176V1024H0z"/><path d="M0 999.64h42.538v9.948H0zm275.912-.026h69.284v9.95h-69.284zm300 0h68.313v9.95h-68.313zm215.218.026h70.496v9.948H791.13z" fill="#42210b"/><path fill="#eab52f" d="M456.426 905.023h15.913v8.25h-15.913z"/><path fill="#29cc29" d="M336.41 978.538s8.05-30.924 62.268-30.924c0 0 24.147-36.854 67.354-36.854 54.044 0 70.74 37.278 70.74 37.278s34.736 2.965 45.75 30.5H336.41z"/><path fill="#fff" d="M407.362 947.3s22.38-30.058 57.904-30.058c40.666 0 63.652 30.058 63.652 30.058H407.362z"/><path fill="#29cc29" d="M474.107 913.273h3.536v41.99h-3.536z"/><path fill="#39b54a" d="M586.99 980.31c0 2.24-1.814 4.056-4.053 4.056H336a4.06 4.06 0 0 1-4.056-4.056h0c0-2.242 1.816-4.056 4.056-4.056h246.938c2.238 0 4.052 1.815 4.052 4.056h0z"/><path fill="#eab52f" d="M347.64 957.8c-.022-.01-.048-.017-.07-.026l-4.597 9.728a.52.52 0 0 0 .066.039c2.688 1.27 5.896.12 7.168-2.57s.116-5.9-2.568-7.172z"/><circle fill="#474134" cx="394.985" cy="985.618" r="18.123"/><circle fill="#776f5e" cx="394.985" cy="985.618" r="11.051"/><circle fill="#474134" cx="525.529" cy="985.618" r="18.123"/><circle fill="#776f5e" cx="525.529" cy="985.618" r="11.051"/><path d="M474.107 952.026c0 1.057-.857 1.916-1.915 1.916h-8.546a1.92 1.92 0 0 1-1.917-1.916h0a1.92 1.92 0 0 1 1.917-1.917h8.546c1.058 0 1.915.858 1.915 1.917h0zm54.81 0c0 1.057-.855 1.916-1.914 1.916h-8.545a1.92 1.92 0 0 1-1.918-1.916h0a1.92 1.92 0 0 1 1.918-1.917H527c1.06 0 1.916.858 1.916 1.917h0zm403.254-41.753h14.077v7.3H932.17z" fill="#eab52f"/><path fill="#cc3d2e" d="M825.99 975.313s7.12-27.36 55.09-27.36c0 0 21.365-32.605 59.59-32.605 47.813 0 62.584 32.98 62.584 32.98s30.73 2.623 40.477 26.985l-217.74-.001z"/><path fill="#fff" d="M888.762 947.685s19.802-26.594 51.23-26.594c35.978 0 56.313 26.594 56.313 26.594H888.762z"/><path fill="#cc3d2e" d="M947.813 917.573h3.128v37.15h-3.128z"/><path fill="#e54033" d="M1047.682 976.88c0 1.98-1.605 3.587-3.585 3.587h-218.47a3.59 3.59 0 0 1-3.588-3.587h0a3.59 3.59 0 0 1 3.588-3.589h218.47a3.59 3.59 0 0 1 3.585 3.589h0z"/><path fill="#eab52f" d="M835.926 956.966c-.02-.01-.043-.016-.062-.024l-4.066 8.606c.016.012.037.024.058.035 2.378 1.123 5.216.105 6.34-2.274a4.77 4.77 0 0 0-2.271-6.343z"/><circle fill="#474134" cx="877.813" cy="981.577" r="16.034"/><circle fill="#776f5e" cx="877.813" cy="981.576" r="9.777"/><circle fill="#474134" cx="993.308" cy="981.577" r="16.034"/><circle fill="#776f5e" cx="993.308" cy="981.576" r="9.777"/><path d="M947.813 951.857c0 .935-.76 1.695-1.694 1.695h-7.56c-.938 0-1.697-.76-1.697-1.695h0c0-.936.76-1.695 1.697-1.695h7.56c.937 0 1.694.758 1.694 1.695h0zm48.49 0c0 .935-.757 1.695-1.692 1.695h-7.56c-.937 0-1.696-.76-1.696-1.695h0c0-.936.76-1.695 1.696-1.695h7.56c.937 0 1.694.758 1.694 1.695h0z" fill="#eab52f"/><path d="M1060.885 666.655c-.623-15.242-15.47-27.443-33.708-27.443s-33.1 12.2-33.7 27.443c-18.1.388-32.567 9.715-32.567 21.166 0 11.702 15.108 21.188 33.74 21.188 13.986 0 25.98-5.343 31.097-12.955a34.41 34.41 0 0 0 1.441.032c.48 0 .964-.014 1.444-.032 5.114 7.612 17.1 12.955 31.094 12.955 18.633 0 33.737-9.485 33.737-21.188 0-11.454-14.475-20.778-32.567-21.166zm-531.168-167.63c0 3.98-13.98 7.203-31.23 7.203-12.942 0-24.048-1.816-28.782-4.404l-1.336.01a98.04 98.04 0 0 1-1.335-.01c-4.734 2.587-15.838 4.404-28.785 4.404-17.247 0-31.23-3.224-31.23-7.203 0-3.893 13.402-7.063 30.146-7.195.575-5.18 14.32-9.33 31.205-9.33s30.625 4.148 31.2 9.33c16.746.132 30.146 3.302 30.146 7.195zm-409.46 153.142c-.624-15.243-15.47-27.443-33.7-27.443s-33.1 12.2-33.7 27.443c-18.1.388-32.567 9.715-32.567 21.166 0 11.702 15.105 21.188 33.74 21.188 13.984 0 25.98-5.343 31.096-12.954a36.27 36.27 0 0 0 1.443.031c.48 0 .963-.014 1.44-.03 5.116 7.6 17.112 12.954 31.096 12.954 18.634 0 33.738-9.486 33.738-21.188 0-11.45-14.477-20.778-32.566-21.166zM776.56 639.9c-.443-10.954-11.112-19.72-24.223-19.72-13.104 0-23.773 8.764-24.223 19.72-13 .274-23.4 6.98-23.4 15.2 0 8.407 10.856 15.222 24.246 15.222 10.047 0 18.67-3.836 22.346-9.307a29.52 29.52 0 0 0 1.034.021c.346 0 .694-.01 1.04-.02 3.675 5.47 12.295 9.307 22.344 9.307 13.388 0 24.242-6.813 24.242-15.222-.005-8.228-10.407-14.93-23.405-15.2zM402.604 697.6c-.373 6.27-9.27 11.285-20.2 11.285s-19.826-5.02-20.2-11.285c-10.84-.164-19.515-3.995-19.515-8.7 0-4.808 9.052-8.713 20.218-8.713 8.378 0 15.565 2.198 18.633 5.33l.864-.014a30.85 30.85 0 0 1 .862.014c3.065-3.13 10.254-5.33 18.634-5.33 11.166 0 20.216 3.9 20.216 8.713-.001 4.716-8.677 8.548-19.514 8.7z" fill="#c7e2f9"/><path d="M-7.22 648.825l-2.083 3.196 5.392 3.482 2.057-3.212zm-9.554-6.323l-2.13 3.164 5.342 3.563 2.103-3.183zm-9.404-6.462l-2.2 3.115 5.284 3.67 2.156-3.147zm48.16 31.012l-1.96 3.27 5.513 3.28 1.94-3.286zm-9.797-5.952l-1.998 3.25 5.476 3.342 1.976-3.26zm-9.693-6.043l-2.04 3.223 5.435 3.412 2.016-3.238zm49.32 29.19l-1.847 3.335 5.623 3.087 1.828-3.348zm-9.992-5.616l-1.884 3.314 5.585 3.154 1.865-3.327zm-9.904-5.698l-1.922 3.293 5.552 3.214 1.902-3.305zm50.292 27.485l-1.733 3.396 5.728 2.9 1.7-3.4zm-10.176-5.275l-1.772 3.378 5.7 2.96 1.75-3.387zm-10.087-5.367l-1.8 3.358 5.652 3.03 1.8-3.367zm51.205 25.74l-1.612 3.456 2.905 1.36 2.917 1.334 1.6-3.47-2.907-1.326-2.892-1.354zm-10.36-4.9l-1.653 3.438 5.788 2.77 1.63-3.45zm-10.266-5.01l-1.693 3.417 5.755 2.835 1.672-3.428zm52.076 23.89l-1.48 3.516 5.926 2.464 1.456-3.526zm-10.524-4.51l-1.526 3.494 5.895 2.534 1.5-3.505zm-10.44-4.645l-1.57 3.48 5.86 2.612 1.546-3.485zm52.96 21.863l-1.335 3.574 6.016 2.237 1.307-3.584zm-10.706-4.085l-1.385 3.554 5.985 2.317 1.357-3.563zM155.28 733.9l-1.434 3.536 5.954 2.4 1.408-3.543zm53.813 19.62l-1.172 3.63 3.053 1 3.063.96 1.14-3.64-3.047-.953-3.038-.988zm-10.873-3.606l-1.228 3.6 3.037 1.038 3.046 1.014 1.197-3.622-3.03-1.008-3.022-1.032zm-10.783-3.76l-1.283 3.592 3.024 1.08 3.027 1.064 1.253-3.6-3.013-1.062-3.008-1.072zm54.643 17.15l-1 3.684 3.1.836 3.112.795.954-3.694-3.095-.8-3.08-.832zm-11.036-3.072L230 763.894l3.084.895 3.1.85 1.018-3.677-3.08-.842-3.068-.9zm-10.946-3.245l-1.114 3.646 3.068.946 3.082.9 1.08-3.658-3.065-.896-3.052-.938zm55.432 14.335l-.782 3.73 3.148.646 3.153.62.74-3.74-3.13-.618-3.128-.64zm-11.185-2.46l-.854 3.718 3.133.7 3.14.682.814-3.726-3.12-.678-3.113-.707zm-11.1-2.663l-.923 3.703 3.117.77 3.126.74.885-3.7-3.107-.736-3.098-.768zm56.14 11.14l-.545 3.774 6.375.85.497-3.782zm-11.31-1.762l-.627 3.762 6.35.993.58-3.77zm-11.236-2l-.706 3.747 3.162.572 3.166.56.663-3.757-3.145-.555-3.14-.567zm56.72 7.468l-.27 3.803 6.42.393.22-3.807zm-11.402-.96l-.367 3.797 6.4.55.313-3.8zm-11.342-1.23l-.458 3.787 6.395.7.407-3.792zm57.087 3.278l.038 3.813 6.436-.12-.098-3.814zm-11.44-.05l-.07 3.814 6.436.057.012-3.814zm-11.397-.365l-.173 3.8 6.432.226.116-3.812zm57.137-1.455l.384 3.793 6.405-.696-.45-3.787zm-11.404.972l.265 3.805 6.422-.497-.33-3.8zm-11.38.618l.148 3.812 6.433-.308-.2-3.808zm56.71-6.75l.766 3.736 6.3-1.328-.84-3.72zm-11.234 2.1l.635 3.76 6.35-1.1-.708-3.748zm-11.266 1.7l.5 3.78 6.382-.9-.58-3.772zm55.678-12.534l1.175 3.628L486.6 768l-1.252-3.604zm-10.935 3.312l1.037 3.67 6.203-1.776-1.114-3.647zm-11.015 2.894l.9 3.707 6.262-1.55-.977-3.687zm54.465-17.542l1.287 3.6 6.025-2.173-1.295-3.587zM501 758.9l1.272 3.595 6.04-2.13-1.28-3.592zm-10.777 3.788l1.26 3.6 6.04-2.127-1.266-3.597zM545.54 746.8l-1.32-3.58 6.007-2.216 1.32 3.58zm-10.78 3.963l-1.312-3.582 6-2.2 1.312 3.582zm-12.072.35l1.298 3.586 6.022-2.18-1.307-3.58zm55.172-16.34l-1.342-3.57 5.994-2.253 1.342 3.57zm-10.78 4.037l-1.337-3.572 5.996-2.244 1.337 3.572zm-10.743 3.978l-1.33-3.573 6-2.232 1.33 3.573zm53.77-20.208l-1.352-3.566 5.984-2.268 1.352 3.566zm-10.766 4.05l-1.35-3.567 5.987-2.265 1.35 3.567zm-10.61 4.038l-1.348-3.567 5.985-2.26 1.348 3.567zm53.597-20.26l-1.342-3.57 6-2.25 1.342 3.57zm-10.748 3.948l-1.35-3.57 5.985-2.262 1.35 3.57zm-10.697 4.115l-1.35-3.567 5.984-2.264 1.35 3.567zm52.435-23.688l1.316 3.58 6.002-2.205-1.308-3.583zm-10.776 3.968l1.327 3.576 6-2.213-1.32-3.58zm-9.35 7.555l-1.336-3.574 5.994-2.24 1.336 3.574zm52.585-23.205l1.263 3.6 6.034-2.107-1.25-3.604zm-10.828 3.835l1.283 3.6 6.02-2.153-1.273-3.594zm-10.77 3.875l1.3 3.584 6.016-2.16-1.3-3.6zm54.274-18.8l1.182 3.626 6.08-1.953-1.162-3.632zm-10.906 3.616l1.213 3.616 6.055-2.036-1.197-3.622zm-10.848 3.662l1.24 3.606 6.05-2.047-1.223-3.6zm54.735-17.468l1.06 3.665 6.14-1.735-1.033-3.673zm-11.015 3.286l1.106 3.65 6.1-1.854-1.083-3.658zm-10.948 3.366l1.146 3.637 3.043-.967 3.055-.928-1.125-3.646-3.064.93-3.055.974zm55.338-15.527l.9 3.7 6.2-1.443-.85-3.717zm-11.154 2.797l.954 3.692 6.173-1.597-.92-3.702zm-11.08 2.932l1 3.68 3.073-.857 3.087-.8-.98-3.685-3.104.802-3.088.86zm56.067-12.767l.652 3.758 6.276-1.063-.6-3.768zm-11.313 2.103l.74 3.742 5.266-1.07.98-.18-.693-3.75-.985.183-5.307 1.076zm-11.234 2.314l.82 3.725 3.115-.668 3.12-.632-.775-3.732-3.145.636-3.134.67zm56.826-8.954l.33 3.8 5.34-.494 1-.06-.26-3.807a14.66 14.66 0 0 0-1.002.063l-2.198.203-3.2.295zm-11.462 1.148l.45 3.788.982-.133 2.172-.25 3.164-.3-.385-3.795-3.2.295-2.192.253-.993.134zm-11.378 1.51l.557 3.776 6.304-.837-.498-3.784zm57.424-3.907l-.088 3.814.988.033 2.177.112 3.164.164.186-3.813-5.42-.275-1.006-.035zm-11.53.01l.06 3.812 6.345-.004.023-3.813zm-11.48.428l.2 3.808 6.343-.308-.124-3.812zm57.492 2.798l-.617 3.764 6.242 1.046.725-3.744zm-11.428-1.59l-.435 3.8 5.315.57.976.16.534-3.777-.993-.16-2.198-.237-3.2-.343zM919.1 640.7l-.256 3.807 3.162.18 3.15.34.354-3.798-3.2-.344-3.2-.185zm56.547 10.85l-1.207 3.62.946.285 2.034.764 2.958 1.117 1.317-3.58-5.087-1.916-.96-.3zm-11.055-3.348l-1.008 3.68 6.052 1.83 1.12-3.646zM953.4 645.52l-.8 3.726 6.162 1.435.92-3.702zm54.075 19.78l-1.787 3.37 5.562 3 1.888-3.315zm-10.345-5.136l-1.6 3.46 4.854 2.214.9.43 1.705-3.4s-.353-.196-.905-.438l-4.945-2.258zm-10.564-4.568l-1.406 3.546 2.96 1.115 2.883 1.3 1.513-3.5-2.935-1.322-3.014-1.138z" fill="#f36f40"/><path d="M-8.692 831.626l2.08 3.195 5.36-3.46-2.058-3.212zm-9.588 6.344l2.13 3.163 5.307-3.536-2.1-3.184zm-9.454 6.5l2.2 3.116 5.228-3.63-2.155-3.147zm48.332-31.125l1.96 3.27 5.486-3.262-1.94-3.285zm-9.826 5.965l2 3.25 5.447-3.328-1.977-3.26zm-9.722 6.063l2.04 3.224 5.404-3.393-2.015-3.237zm49.455-29.268l1.85 3.336 5.596-3.07-1.827-3.35zm-10.018 5.63l1.885 3.317 5.56-3.14-1.865-3.328zm-9.93 5.714l1.923 3.296 5.525-3.2-1.902-3.307zm50.425-27.558l1.734 3.397 5.7-2.876-1.712-3.4zm-10.204 5.3l1.772 3.377 5.663-2.947-1.75-3.4zm-10.112 5.38l1.8 3.355 5.627-3.016-1.8-3.37zM112 764.75l1.612 3.458 2.9-1.354 2.904-1.325-1.6-3.466-2.915 1.327-2.902 1.36zm-10.387 4.923l1.652 3.437 5.76-2.755-1.63-3.446zm-10.297 5.024l1.694 3.417 5.727-2.82-1.672-3.427zm52.238-23.96l1.48 3.517 5.893-2.45-1.455-3.526zm-10.567 4.528l1.525 3.496 5.863-2.52-1.5-3.506zm-10.47 4.655l1.57 3.476 5.83-2.6-1.546-3.5zM175.653 738l1.336 3.573 5.98-2.223-1.307-3.583zm-10.74 4.1l1.386 3.554 5.948-2.304-1.357-3.565zm-10.65 4.23l1.434 3.534 5.92-2.378-1.408-3.544zm54-19.7l1.174 3.628 3.032-.987 3.043-.952-1.14-3.64-3.06.958-3.05.993zm-10.913 3.623l1.23 3.6 3.018-1.03 3.026-1.005-1.198-3.622-3.042 1-3.033 1.038zm-10.82 3.773l1.283 3.593 3.004-1.073 3.008-1.06-1.252-3.604-3.023 1.063-3.02 1.08zm54.85-17.212l1 3.686 3.078-.83 3.088-.8-.954-3.692-3.107.794-3.095.83zm-11.08 3.083l1.054 3.665 3.063-.886 3.074-.844-1.02-3.676-3.092.85-3.08.892zm-11 3.26l1.113 3.647 3.046-.94 3.06-.894-1.08-3.657-3.077.9-3.062.946zm55.667-14.396l.782 3.732 3.12-.64 3.125-.614-.74-3.742-3.146.62-3.14.644zm-11.235 2.47l.854 3.72 3.107-.706 3.114-.676-.814-3.728-3.134.683-3.127.708zm-11.15 2.676l.924 3.7 3.093-.767 3.102-.735-.885-3.7-3.122.74-3.112.772zm56.408-11.2l.545 3.773 6.312-.84-.497-3.78zm-11.37 1.77l.628 3.76 6.292-.983-.58-3.772zm-11.3 2.008l.706 3.748 3.133-.567 3.136-.555-.662-3.756-3.16.557-3.154.573zm57.026-7.508l.272 3.806 6.353-.4-.22-3.8zm-11.47.965l.368 3.797 6.34-.545-.315-3.8zm-11.406 1.24l.46 3.786 6.328-.695-.407-3.8zm57.436-3.3l-.037 3.813 6.36.12.096-3.812zm-11.516.052l.07 3.813 6.363-.057-.013-3.813zm-11.47.365l.174 3.8 6.358-.224-.118-3.815zm57.52 1.466l-.384 3.795 6.32.686.45-3.786zm-11.478-.978l-.263 3.804 6.34.492.328-3.8zm-11.462-.622l-.15 3.8 6.352.303.2-3.808zm57.145 6.802l-.77 3.736 6.217 1.3.84-3.72zm-11.327-2.12l-.636 3.76 6.258 1.096.707-3.747zm-11.354-1.722l-.5 3.78 6.3.887.58-3.77zm56.148 12.644l-1.174 3.628 6.034 1.97 1.252-3.603zm-11.032-3.344l-1.036 3.672 6.104 1.745 1.112-3.65zm-11.1-2.92l-.9 3.707 6.163 1.525.977-3.687zm54.726 17.624l-1.286 3.6 6.015 2.17 1.294-3.588zm-10.826-3.853l-1.274 3.596 6.03 2.128 1.28-3.593zm-10.787-3.797l-1.26 3.6 6.032 2.123 1.266-3.598zm52.71 23.025l1.32-3.58 6 2.215-1.32 3.58zm-10.79-3.968l1.312-3.582 6.006 2.2-1.312 3.582zm-9.43-7.485l-1.297 3.586 6.012 2.176 1.306-3.582zm52.498 23.53l1.342-3.57 6 2.25-1.342 3.57zm-10.737-4.043l1.337-3.572 6 2.24-1.337 3.572zm-10.745-3.933l1.33-3.573 5.994 2.23-1.33 3.573zm53.738 20.106l1.352-3.565 5.985 2.27-1.352 3.565zm-10.71-4.08l1.348-3.567 5.987 2.262-1.348 3.567zm-10.75-3.993l1.35-3.57 5.985 2.262-1.35 3.57zm53.71 20.322l1.342-3.57 6 2.252-1.342 3.57zm-10.736-4.05l1.35-3.57 5.987 2.262-1.35 3.57zm-10.743-4.08l1.352-3.567 5.986 2.268-1.352 3.567zm55.123 16.554l-1.315 3.58 6 2.2 1.3-3.584zm-10.768-3.966l-1.327 3.577 6.008 2.215 1.32-3.578zm-12.112-.453l1.336-3.574 6 2.242-1.336 3.574zm55.3 16.086l-1.263 3.6 6.05 2.114 1.25-3.604zm-10.813-3.83l-1.282 3.593 6.032 2.158 1.274-3.596zm-10.757-3.87l-1.3 3.586 6.027 2.167 1.3-3.587zm54.2 18.77l-1.182 3.626 6.106 1.962 1.16-3.632zm-10.883-3.607l-1.215 3.615 6.077 2.045 1.196-3.622zm-10.832-3.656l-1.24 3.607 6.072 2.052 1.225-3.6zm54.61 17.425l-1.062 3.664 6.18 1.746 1.03-3.673zm-10.983-3.274l-1.106 3.65 6.14 1.86 1.08-3.658zm-10.923-3.357l-1.146 3.638 3.058.972 3.066.93 1.126-3.646-3.058-.928-3.046-.967zm55.16 15.478l-.9 3.7 6.26 1.452.85-3.717zm-11.1-2.787l-.954 3.693 6.217 1.6.92-3.702zm-11.038-2.92l-1 3.68 3.092.86 3.105.806.98-3.687-3.092-.8-3.074-.86zm55.812 12.71l-.653 3.758 6.343 1.072.602-3.766zm-11.252-2.094l-.74 3.742 5.315 1.075.988.183.695-3.75-.98-.182-2.148-.436-3.13-.63zm-11.177-2.3l-.82 3.727 3.143.673 3.15.64.775-3.734-3.13-.634-3.12-.67zm56.48 8.902l-.33 3.8 5.412.5 1.006.063.262-3.807s-.397-.005-.994-.063l-5.356-.493zm-11.375-1.14l-.45 3.786.996.132 2.198.253 3.2.297.385-3.795-3.176-.292-2.178-.25-.984-.13zm-11.303-1.5l-.56 3.774 6.383.847.497-3.782zm56.965 3.88l.1 3.813 1.008-.036 5.445-.28-.185-3.8-5.366.272-.993.04zm-11.422-.008l-.063 3.812 6.455.004-.023-3.813zm-11.382-.427l-.2 3.808 6.44.3.124-3.8zm56.915-2.767l.617 3.763 6.38-1.07-.724-3.746zm-11.3 1.57l.434 3.8 5.422-.584.996-.164-.532-3.776-.98.16-5.34.573zM918.93 839.3l.257 3.806 3.226-.184 3.212-.345-.354-3.798-3.164.34-3.177.18zm55.874-10.716l1.207 3.618.97-.293 2.084-.78 3.03-1.142-1.315-3.578-5.022 1.888-.953.287zm-10.914 3.302l1.007 3.678 6.197-1.874-1.118-3.645zm-11.052 2.66l.812 3.727 6.302-1.468-.92-3.702zm53.372-19.52l1.786 3.37 5.694-3.08-1.888-3.315zM996 820.1l1.6 3.46 4.97-2.27.9-.44-1.705-3.4s-.348.192-.895.433L996 820.1zm-10.428 4.507l1.406 3.545 3.03-1.144 2.95-1.33-1.515-3.5-2.896 1.3-2.973 1.12z" fill="#ffff20"/><path fill="#08abaf" d="M440.97 779.428a6.01 6.01 0 0 1-6.009 6.009h0a6.01 6.01 0 0 1-6.008-6.009h0a6.01 6.01 0 0 1 6.008-6.008h0a6.01 6.01 0 0 1 6.009 6.008h0z"/><path fill="#dbc62e" d="M755.715 809.922a6.01 6.01 0 0 1-6.009 6.009h0a6.01 6.01 0 0 1-6.009-6.009h0a6.01 6.01 0 0 1 6.009-6.008h0a6.01 6.01 0 0 1 6.009 6.008h0z"/><path fill="#288f98" d="M405.607 726.915c-10.406 5.82-14.125 18.972-8.307 29.377 6.22 11.127 37.08 22.078 37.08 22.078s7.288-31.198.605-43.15a21.59 21.59 0 0 0-29.378-8.306zm16.588 29.664c-6.404 3.582-14.497 1.292-18.078-5.11s-1.295-14.497 5.108-18.08a13.29 13.29 0 0 1 18.08 5.112c3.582 6.403 1.293 14.5-5.1 18.078z"/><path fill="#ea5347" d="M68.143 791.977a6.01 6.01 0 0 1-6.01 6.009h0a6.01 6.01 0 0 1-6.008-6.009h0a6.01 6.01 0 0 1 6.008-6.008h0a6.01 6.01 0 0 1 6.01 6.008h0z"/><path fill="#cc3d2e" d="M79.186 728.56c-11.563-3.18-23.513 3.618-26.693 15.183-1.45 5.278-.817 10.636 1.394 15.202l-.01.005 7.865 33.028 23.61-24.338c4.258-2.797 7.56-7.1 9.016-12.39 3.177-11.564-3.62-23.513-15.184-26.69zm-9.044 32.9a12.41 12.41 0 0 1-8.675-15.253 12.41 12.41 0 0 1 15.253-8.674 12.41 12.41 0 0 1 8.677 15.252c-1.815 6.607-8.646 10.49-15.255 8.675z"/><path fill="#ea5347" d="M621.184 716.482a3.41 3.41 0 0 1-3.411 3.41h0a3.41 3.41 0 0 1-3.41-3.41h0a3.41 3.41 0 0 1 3.41-3.41h0c1.882 0 3.41 1.527 3.41 3.4h0z"/><path fill="#cc3d2e" d="M627.45 680.49c-6.563-1.805-13.346 2.053-15.15 8.616-.823 2.996-.464 6.036.792 8.628l-.006.003 4.464 18.745 13.4-13.813a12.28 12.28 0 0 0 5.117-7.031c1.803-6.563-2.055-13.344-8.617-15.148zm-5.134 18.672c-3.748-1.03-5.954-4.905-4.923-8.656s4.906-5.954 8.656-4.923 5.955 4.906 4.925 8.656-4.907 5.954-8.658 4.923z"/><path fill="#f9df23" d="M758.146 764.738c-11.077-2.045-21.72 5.277-23.764 16.355-.933 5.06.1 10.02 2.524 14.117l-.008.006.032.04a20.5 20.5 0 0 0 4.866 5.552l7.99 9.114 10.672-5.634c7.014-2.173 12.616-8.065 14.04-15.788 2.05-11.075-5.273-21.716-16.354-23.76zm-6.01 32.57a12.72 12.72 0 0 1-10.197-14.816c1.276-6.908 7.91-11.473 14.815-10.195 6.908 1.273 11.474 7.906 10.197 14.814a12.72 12.72 0 0 1-14.815 10.197z"/></svg>