<svg xmlns="http://www.w3.org/2000/svg" xmlns:xlink="http://www.w3.org/1999/xlink" width="1024" height="1024"><style><![CDATA[.B{fill:#fff}.C{fill:#f9b233}.D{fill:#dad1d1}.E{fill:#3c3c3b}.F{opacity:.5}.G{clip-path:url(#C)}.H{fill:#fff5c4}.I{fill:#ffae80}]]></style><path fill="#f9f9f9" d="M0 0h1024v1024H0z"/><path fill="#f4e451" d="M.001 0v415.282c38.247 6.48 84.504 10.928 140.396 11.778C339.66 430.098 780.026 251.944 1024 186.432V0H.001z"/><path fill="#662d91" d="M.001 0v383.824c38.247 5.99 84.504 10.1 140.396 10.887C339.66 397.52 780.026 246.98 1024 186.43V0H.001z"/><path fill="#3a3a3a" d="M0 954.765h1027.176V1024H0z"/><path d="M0 987.64h42.538v9.948H0zm275.912-.026h96.758v9.95h-96.758zm300 0h96.758v9.95h-96.758zm294.028.026h157.234v9.948H869.94z" fill="#f4f4f4"/><path d="M529.717 499.024c0 3.98-13.98 7.203-31.23 7.203-12.942 0-24.048-1.816-28.782-4.404l-1.336.01a98.04 98.04 0 0 1-1.335-.01c-4.734 2.587-15.838 4.404-28.785 4.404-17.247 0-31.23-3.224-31.23-7.203 0-3.893 13.402-7.063 30.146-7.195.575-5.18 14.32-9.33 31.205-9.33s30.625 4.148 31.2 9.33c16.746.132 30.146 3.302 30.146 7.195zm531.168 167.63c-.623-15.242-15.47-27.443-33.708-27.443s-33.1 12.2-33.7 27.443c-18.1.388-32.567 9.715-32.567 21.166 0 11.702 15.108 21.188 33.74 21.188 13.986 0 25.98-5.343 31.097-12.955a34.41 34.41 0 0 0 1.441.032c.48 0 .964-.014 1.444-.032 5.114 7.612 17.1 12.955 31.094 12.955 18.633 0 33.737-9.485 33.737-21.188 0-11.454-14.475-20.778-32.567-21.166zm-940.63-14.49c-.624-15.243-15.47-27.443-33.7-27.443s-33.1 12.2-33.7 27.443c-18.1.388-32.567 9.715-32.567 21.166 0 11.702 15.105 21.188 33.74 21.188 13.984 0 25.98-5.343 31.096-12.954a36.27 36.27 0 0 0 1.443.031c.48 0 .963-.014 1.44-.03 5.116 7.6 17.112 12.954 31.096 12.954 18.634 0 33.738-9.486 33.738-21.188 0-11.45-14.477-20.778-32.566-21.166zM776.56 639.9c-.443-10.954-11.112-19.72-24.223-19.72-13.104 0-23.773 8.764-24.223 19.72-13 .274-23.4 6.98-23.4 15.2 0 8.407 10.856 15.222 24.246 15.222 10.047 0 18.67-3.836 22.346-9.307a29.52 29.52 0 0 0 1.034.021c.346 0 .694-.01 1.04-.02 3.675 5.47 12.295 9.307 22.344 9.307 13.388 0 24.242-6.813 24.242-15.222-.005-8.228-10.407-14.93-23.405-15.2zM402.604 697.6c-.373 6.27-9.27 11.285-20.2 11.285s-19.826-5.02-20.2-11.285c-10.84-.164-19.515-3.995-19.515-8.7 0-4.808 9.052-8.713 20.218-8.713 8.378 0 15.565 2.198 18.633 5.33l.864-.014a30.85 30.85 0 0 1 .862.014c3.065-3.13 10.254-5.33 18.634-5.33 11.166 0 20.216 3.9 20.216 8.713-.001 4.716-8.677 8.548-19.514 8.7z" fill="#c7e2f9"/><path d="M518.068 890.088h4.23c.82 0 1.514.608 1.62 1.42l1.84 13.975H514.6l1.84-13.975c.107-.813.8-1.42 1.62-1.42z" class="C"/><path fill="#e94e1b" d="M679.037 961.842l-.697.063c-.67.06-1.31-1.026-1.465-2.485l-.928-8.753c-.172-1.62.316-3.05 1.063-3.1l.494-.035c.652-.045 1.277.973 1.46 2.38l1.125 8.638c.22 1.68-.276 3.222-1.053 3.293z"/><path fill="#ffc55e" d="M324.643 964.56l-2.502-.2c-1.577-.133-2.868-1.5-3.033-3.235l-1.148-12.012c-.164-1.713.832-3.26 2.347-3.642l1.597-.406 2.74 19.505z"/><path d="M325.674 965.13l-3.632-.253-2.2-20.273 4.52-.13z"/><path d="M325.176 977.1l-4.037.1a2.05 2.05 0 0 1-2.072-1.745l-.98-6.604c-.183-1.235.773-2.344 2.022-2.344h5.42l1.22 8.74a1.63 1.63 0 0 1-1.573 1.854z" class="D"/><path d="M678.71 963.453l-1.63-14.8c-.336-3.138-2.678-5.7-5.768-6.345L606.97 929c-2.148-.442-4.127-1.49-5.7-3.033l-12.813-12.506c-6.037-5.884-14.146-9.186-22.572-9.186H479.01c-2.506 0-4.942.827-6.93 2.36l-29.532 22.747c-2.956 2.274-6.535 3.6-10.27 3.79l-100.534 5.03c-6.084.307-10.625 1.41-9.847 7.457l2.475 23.87c.616 4.81 4.396 8.6 9.205 9.214l22.324 2.86h264.976l4.828-.336 2.035-.144 38.457-2.668c7.668-.526 13.36-7.34 12.514-15zM513.255 933.77H447.7l28.42-21.894c.818-.632 1.842-.98 2.883-.98h35.854l-1.604 22.873z" class="C"/><path opacity=".75" d="M426.07 936.42l-94.176 4.717c-2.115.105-7.857.315-7.1 5.114l2.492 22.9c-1.583-26.222 1.54-24.68 12.577-25.542l86.197-7.2zm249.715 27.36l-1.63-14.802a4.35 4.35 0 0 0-3.441-3.787l-63.852-13.944c-.24-.05-1.197.455-1.197.455 62.156 14.584 65.05 13.5 70.12 32.078z" fill="#f6f6f6"/><path d="M515.865 949.137l.122-1.63 2.82-40.284H479c-1.85 0-3.674.607-5.133 1.727l-29.532 22.745c-1.265.973-2.627 1.8-4.04 2.457l-3.284 13.355-.656 2.7 3.94 28.436h78.5l-1.192-11.896-1.75-17.61zm-2.6-15.368H447.7l28.42-21.894c.818-.632 1.842-.98 2.883-.98h35.854l-1.604 22.873z" class="B"/><path d="M479.006 910.156a5.47 5.47 0 0 0-3.334 1.133l-29.53 22.748-.668.472h68.47l1.7-24.353h-36.65zm34.25 23.613H447.7l28.42-21.894c.818-.632 1.842-.98 2.883-.98h35.854l-1.604 22.873z" class="C"/><path d="M518.81 949.137l1.752 17.61 1.19 11.896h46.39c.413-4.28 1.678-8.296 3.674-11.896 3.795-7.103 10.338-12.528 18.342-14.936l.05-4.306.145-9.827a11.07 11.07 0 0 0-2.092-6.594l-13.842-19.39c-1.97-2.748-5.107-4.475-8.488-4.475h-44.178l-2.944 41.916z" class="B"/><path fill="#1d1715" d="M572.014 913.41c-1.455-2.033-3.728-3.25-6.133-3.255h-41.38l-1.715 24.426 63.982-.073-14.755-21.098z"/><path d="M498.857 938.762h13.086v4.17h-13.086zm74.826 0h13.087v4.17h-13.087z"/><path d="M678.62 963.405l.176 1.897h-8.014a7.38 7.38 0 0 0-7.375 7.376v.073l17.4-.776c1.97-.06 3.787-1.64 3.635-3.603l-.102-1.233a4.1 4.1 0 0 0-4.088-3.734h-1.632zm-346.06 11.838h-10.5a1.95 1.95 0 0 1-1.903-1.533l-.625-2.877c-.264-1.214.66-2.36 1.902-2.36h10.5c.916 0 1.708.637 1.903 1.532l.625 2.878c.264 1.214-.66 2.36-1.902 2.36z" class="D"/><path d="M414.664 981.6h-52.8l1.474-8.3a16.56 16.56 0 0 1 3.122-7.173c1.488-1.954 3.378-3.57 5.57-4.7a16.45 16.45 0 0 1 7.686-1.9h15.948c3.554 0 6.917 1.058 9.735 2.865a17.77 17.77 0 0 1 2.433 1.905 17.8 17.8 0 0 1 5.556 10.104l1.266 7.2zm213.08-.482l-2.033.144-1.97.128-2.866.2H575.02l1.216-6.87.258-1.44a16.56 16.56 0 0 1 8.613-11.816c2.033-1.1 4.322-1.76 6.742-1.905l1.04-.032h15.93c3.523 0 6.838 1.025 9.64 2.802 4.163 2.626 7.206 6.95 8.103 12.073l1.182 6.707z"/><path d="M550.246 911.22l-17.178 22.622h13.577l17.324-22.622zm-6.156 0l-17.068 22.622h4.386l17.1-22.622z" opacity=".75" class="B"/><path d="M402.763 977.327c0 8.004-6.485 14.492-14.494 14.492s-14.497-6.488-14.497-14.492 6.486-14.493 14.497-14.493 14.494 6.486 14.494 14.493z" class="D"/><path d="M405.405 962.398a17.96 17.96 0 0 0-9.732-2.86h-15.94a16.6 16.6 0 0 0-7.698 1.881c-4.01 4.1-6.487 9.703-6.487 15.885 0 1.467.134 2.897.403 4.29 1.986 10.5 11.21 18.447 22.304 18.465 11.095.01 20.347-7.945 22.333-18.465a22.05 22.05 0 0 0 .404-4.241c.01-5.72-2.102-10.952-5.586-14.954zm-30.463 19.195c-.432-1.353-.663-2.782-.663-4.28 0-7.725 6.277-13.982 14.003-13.973 7.727 0 13.983 6.276 13.974 14.003 0 1.478-.23 2.908-.662 4.25-1.805 5.644-7.102 9.73-13.34 9.724-6.23-.01-11.508-4.1-13.312-9.724z"/><use xlink:href="#B" class="B"/><circle cx="388.268" cy="977.327" r="6.371" class="D"/><g class="B"><path d="M382.748 965.827c-2.224 1.07-4.09 2.767-5.37 4.855l10.886 6.552-5.516-11.407z" class="F"/><path d="M388.264 977.234l5.59 11.56c2.242-1.095 4.112-2.826 5.385-4.955l-10.974-6.606z" class="F"/></g><path d="M615.875 977.327c0 8.004-6.486 14.492-14.494 14.492s-14.496-6.488-14.496-14.492 6.486-14.493 14.496-14.493 14.494 6.486 14.494 14.493z" class="D"/><path d="M618.46 962.33a17.98 17.98 0 0 0-9.637-2.793h-15.94c-2.792 0-5.452.7-7.782 1.938-3.984 4.088-6.44 9.675-6.44 15.827a22.72 22.72 0 0 0 .402 4.289 22.74 22.74 0 0 0 22.307 18.465c11.16.01 20.46-8.05 22.37-18.666a22.61 22.61 0 0 0 .365-4.04c.01-5.758-2.124-11.008-5.645-15.02zm-30.404 19.262c-.432-1.353-.662-2.782-.662-4.28 0-7.725 6.277-13.982 14.002-13.973 7.727 0 13.984 6.276 13.975 14.003 0 1.478-.23 2.908-.662 4.25-1.805 5.644-7.104 9.73-13.34 9.724s-11.5-4.1-13.313-9.724z"/><use xlink:href="#B" x="213.112" class="B"/><circle cx="601.38" cy="977.327" r="6.37" class="D"/><g class="B"><path d="M595.86 965.827c-2.225 1.07-4.088 2.767-5.37 4.855l10.887 6.552-5.516-11.407z" class="F"/><path d="M601.375 977.234l5.59 11.56c2.243-1.095 4.113-2.826 5.387-4.955l-10.976-6.606z" class="F"/><path d="M518.93 947.507l-.122 1.63 1.752 17.61h51.256c3.795-7.103 10.338-12.528 18.342-14.936l.05-4.306H518.93z"/></g><path d="M439.8 950.208l2.286 16.54h72.513l-1.753-17.61.123-1.63h-72.512z" class="C"/><path d="M486.65 950.758h6.99v6.99h-6.99z"/><path d="M479.678 957.747h6.99v6.987h-6.99z"/><path d="M472.706 950.758h6.988v6.99h-6.988z"/><path d="M465.732 957.747h6.988v6.987h-6.988z"/><path d="M458.76 950.758h6.99v6.99h-6.99z"/><g class="C"><path opacity=".3" d="M366.47 966.115a16.56 16.56 0 0 0-3.122 7.173l-1.474 8.3H355.9l-22.32-2.866a10.61 10.61 0 0 1-6.597-3.49h-.24a1.62 1.62 0 0 1-1.569 1.857l-4.036.097a2.02 2.02 0 0 1-2.065-1.746l-.993-6.597a2.03 2.03 0 0 1 .016-.624l48.372-2.114zm225.378-6.55a16.33 16.33 0 0 0-6.742 1.905 16.56 16.56 0 0 0-8.613 11.816l-1.474 8.3H414.664l-1.266-7.2a17.79 17.79 0 0 0-5.556-10.104l183.86-8.02.146 3.282z"/><path opacity=".3" d="M684.44 968.372c.143 1.97-1.664 3.54-3.635 3.603l-4.115.193c-2.227 3.505-6.02 5.972-10.488 6.276l-38.46 2.674-1.184-6.71c-.896-5.124-3.94-9.447-8.103-12.073a17.97 17.97 0 0 0-9.64-2.802h-15.93c-.353 0-.704.017-1.04.032l-.145-3.282 87.598-3.826.785 6.083c.225 1.682-.273 3.234-1.04 3.3l-.512.047.176 1.52h1.537a4.11 4.11 0 0 1 4.1 3.73l.097 1.233z"/></g><defs><path id="A" d="M515.655 910.354h-36.65c-1.204 0-2.388.4-3.334 1.132l-29.53 22.747-.668.474h68.47l1.71-24.353z"/><path id="B" d="M398.838 977.328a10.57 10.57 0 0 1-21.139 0 10.57 10.57 0 0 1 21.139 0z"/></defs><clipPath id="C"><use xlink:href="#A"/></clipPath><path d="M460.802 932.084l-6.068 1.196-4.806-2.81-9.333 3.466 7.216 12.235h21.063l-1.767-4.468-3.694-.064-1.268-1.463.434-5.382-1.777-2.71z" class="G"/><g class="G"><g class="I"><path d="M494.806 924.245l.844 8.684c2.295 2.538 5.207-1.845 7.023-3.44l.166-5.908-8.033.664z"/><path opacity=".4" d="M495.104 927.31l.334 3.46c2.227-.936 3.71-2.61 4.25-4.423l-4.583.962z"/><path d="M505.447 920.125c-.4 1.49-1.943 2.962-2.27 4.09-.29 1.036-4.98 3.18-6.58 3.762-1.38.473-3.344.272-4.035-.8-.563-.89-.472-1.8.055-5.124l-.727.036c-.417-.164-.582-.673-.345-1.055l.526-.854.564-.928.218-.326-.2-.872c.02-.092.037-.163.074-.237.072-.38.18-.728.308-1.072.292-.78.654-1.453 1.09-2.017 1.436-1.872 3.544-2.49 5.58-2.217 2.507.455 6.76.836 5.742 7.615z"/><path opacity=".4" d="M499.723 917.508l-.237.98-7.415 1.7.564-.928.218-.326-.2-.872c.02-.092.037-.163.074-.237l6.997-.308z"/></g><path fill="#2f2e29" d="M502.746 925.756c-4.738.17-1.233-4.584-1.233-4.584s-.3-1.2-.76-.798c-.74-.144-.934-.437-1.595-.6.827-3.296 2.15-6.734-3.377-6.5.188-1.192 2.195-1.767 4.74-1.425 3.405.46 5.98 3.052 5.667 6.473-.183 1.99-.183 3.12-3.44 7.454z"/><path fill="#5e4a4c" d="M505.145 943.1c-.567 3.563-.527 6.473-.582 9.215H488.99l.025-.845.148-3.91.082-1.608.07-1.102.043-.376c.205-1.64.582-3.202 1.057-4.642 1.797-5.49 5.054-9.03 5.054-9.03s7.03-2.363 7.232-2.23c3.206 2.143 3.656 5.184 3.573 6.3-.268 3.57-.713 5.63-1.13 8.228z"/><path d="M502.205 921.757c-.194 1.058-1.312 2.114-2.002 1.986s-.457-.97-.273-2.03c.12-.7.127-1.728.926-1.808.698-.072 1.634.3 1.35 1.852z" class="I"/><path fill="#5589b9" d="M498.545 945.942l-2.22 6.372h-7.336l.025-.845.148-3.91.082-1.608.07-1.102.043-.376c.205-1.64.582-3.202 1.057-4.642l3.07-4.085 7.22 3.984-1.004 2.9-1.158 3.303z" class="F"/><g fill="#5e4a4c"><path d="M499.783 941.17l-13.905 7.604-4.948-6.583 14.504-8.382c1.88-1.14 5.84-1.968 7.232.524 0 .001 2.24 4.1-2.883 6.837z"/><path d="M490.4 948.477l-.202.155c-.06.05-.13.093-.188.134-.224.142-.46.27-.708.378-1.486.65-3.217.403-4.594-.458l-.735-.393-9.707-5.16-3.78-1.807.607-5.075 17.713 5.71c1.104.303 1.97 1.056 2.453 2.007a3.86 3.86 0 0 1 .283 2.802c-.197.72-.604 1.278-1.142 1.71z"/></g><path d="M502.583 947.63h14.51l4.096-21.394h-7.408a8.59 8.59 0 0 0-8.438 6.977l-2.76 14.417z"/><path d="M469.262 937.094l-2.25-3.648-3.642-1.416 1.924 2.958-2.085.8-1.61-2.487.147 5.118 2.925 2.56 4.096.732z" class="I"/><path d="M467.128 937.767l-1.82 1.192-6.7-10.214c-.327-.497-.188-1.166.3-1.492.516-.338 1.184-.198 1.5.3l6.7 10.214zm23.01-19.912c.264.15 16.013-.635 16.013-.635s.568-3.862-.87-4.733c-6.568-3.974-13.98 2.557-14.617 3.395-.705.928.88 1.04.88 1.04s-1.672.782-1.406.934z"/></g><g class="C"><path d="M513.945 935.388h-68.47a.68.68 0 0 1-.649-.473c-.1-.283.012-.59.25-.764l.254-.177.394-.28 29.53-22.747a6.17 6.17 0 0 1 3.75-1.273h36.648a.68.68 0 0 1 .68.729l-1.7 24.353c-.022.357-.32.633-.678.633zm-66.415-1.362h65.78l1.613-22.99h-35.918a4.8 4.8 0 0 0-2.918.991l-28.557 22z"/><path d="M455.6 925.053l-.517.063c-1.606.198-2.925 1.366-3.314 2.938l-.577 2.333-3.98 3.7.4.955 4.096.37c1.01 1.457 2.77 2.372 4.74 2.13l.69-.084-1.527-12.394z"/></g><path fill="#f4dc4d" d="M822.856 1017.24c0 1.876-2.02 3.396-4.508 3.396H782.9c-2.49 0-4.51-1.52-4.51-3.396s2.02-3.396 4.51-3.396h35.458c2.49.001 4.508 1.52 4.508 3.396h0z"/><g class="E"><path d="M802.36 976.84h-3.86v-123.35c0-12.908-5.016-25.058-14.123-34.205l-12.03-12.086 2.737-2.726 12.03 12.086c9.832 9.878 15.248 22.993 15.248 36.93v123.35z"/><path d="M802.36 976.84h-3.86V853.5c0-13.938 5.414-27.054 15.246-36.93l12.03-12.086 2.738 2.726-12.03 12.086c-9.1 9.147-14.123 21.296-14.123 34.205v123.35zm-23.955-170.6l-4.44 4.44a3.5 3.5 0 0 1-4.949 0l-12.364-12.37c-1.365-1.367-1.365-3.583 0-4.95l4.443-4.442a3.5 3.5 0 0 1 4.949 0l12.36 12.363a3.5 3.5 0 0 1 0 4.949z"/></g><path d="M774.204 806.662l-2.572 2.572c-.79.8-2.3.565-3.367-.504l-9.67-9.67c-1.07-1.07-1.295-2.577-.503-3.37l2.57-2.57c.79-.79 2.3-.565 3.368.503l9.67 9.67c1.07 1.07 1.295 2.577.504 3.368z" class="H"/><path d="M821.524 806.23l4.44 4.44a3.5 3.5 0 0 0 4.949 0l12.363-12.362a3.5 3.5 0 0 0 0-4.949l-4.44-4.442a3.5 3.5 0 0 0-4.949 0l-12.365 12.363c-1.365 1.366-1.365 3.582 0 4.95z" class="E"/><path d="M825.728 806.662l2.572 2.572c.79.8 2.3.565 3.367-.504l9.67-9.67c1.068-1.07 1.293-2.577.502-3.37l-2.57-2.57c-.79-.79-2.3-.565-3.37.503l-9.67 9.67c-1.07 1.07-1.293 2.577-.502 3.368z" class="H"/><path fill="#ef643f" d="M807.833 1011.257h-14.807l2.332-51.695a3.11 3.11 0 0 1 3.107-2.969h3.926a3.11 3.11 0 0 1 3.107 2.969l2.335 51.695z"/><path d="M812.34 1016.62H788.52v-2.28c0-1.702 1.38-3.083 3.082-3.083h17.65c1.705 0 3.086 1.38 3.086 3.083v2.28z" class="E"/><path fill="#f4dc4d" d="M307.734 1020.324c0 1.876-2.018 3.396-4.507 3.396H267.77c-2.49 0-4.508-1.52-4.508-3.396s2.02-3.396 4.508-3.396h35.458c2.49 0 4.507 1.52 4.507 3.396h0z"/><g class="E"><path d="M287.238 979.925h-3.862v-123.35c0-12.908-5.016-25.058-14.123-34.205l-12.03-12.086 2.737-2.726L272 819.645c9.833 9.878 15.248 22.993 15.248 36.93v123.35z"/><path d="M287.238 979.925h-3.862v-123.35c0-13.938 5.414-27.054 15.248-36.93l12.03-12.086 2.737 2.726-12.03 12.086a48.17 48.17 0 0 0-14.122 34.205v123.35zm-23.954-170.6l-4.442 4.44c-1.366 1.366-3.583 1.366-4.95 0l-12.363-12.363a3.5 3.5 0 0 1 0-4.949l4.442-4.44a3.5 3.5 0 0 1 4.949 0l12.363 12.363a3.5 3.5 0 0 1 .001 4.949z"/></g><path d="M259.08 809.746l-2.57 2.572c-.792.8-2.3.564-3.368-.505l-9.67-9.668c-1.07-1.07-1.295-2.577-.503-3.37l2.57-2.57c.792-.79 2.3-.565 3.37.503l9.67 9.67c1.07 1.07 1.295 2.577.503 3.368z" class="H"/><path d="M306.403 809.315l4.44 4.44a3.5 3.5 0 0 0 4.949 0l12.363-12.363a3.5 3.5 0 0 0 0-4.949l-4.44-4.44a3.5 3.5 0 0 0-4.949 0l-12.363 12.363a3.5 3.5 0 0 0 0 4.949z" class="E"/><path d="M310.605 809.746l2.572 2.572c.79.8 2.3.564 3.368-.505l9.67-9.668c1.067-1.07 1.293-2.577.502-3.37l-2.57-2.57c-.792-.79-2.3-.565-3.368.503l-9.67 9.67c-1.07 1.07-1.294 2.577-.503 3.368z" class="H"/><path fill="#43dd55" d="M292.7 1014.34h-14.806l2.333-51.696a3.11 3.11 0 0 1 3.106-2.968h3.926a3.11 3.11 0 0 1 3.107 2.968l2.334 51.696z"/><path d="M297.215 1019.702h-23.817v-2.278c0-1.702 1.38-3.083 3.083-3.083h17.65c1.703 0 3.084 1.38 3.084 3.083v2.278z" class="E"/></svg>