<?xml version="1.0" encoding="utf-8"?>
<!-- Generator: Adobe Illustrator 16.0.0, SVG Export Plug-In . SVG Version: 6.00 Build 0)  -->
<!DOCTYPE svg PUBLIC "-//W3C//DTD SVG 1.1//EN" "http://www.w3.org/Graphics/SVG/1.1/DTD/svg11.dtd">
<svg version="1.1" id="Layer_1" xmlns="http://www.w3.org/2000/svg" xmlns:xlink="http://www.w3.org/1999/xlink" x="0px" y="0px"
	 width="220px" height="132px" viewBox="0 44 220 132" enable-background="new 0 44 220 132" xml:space="preserve">
<g>
	<g>
		<circle fill="#00FFB0" cx="56.081" cy="141.69" r="11.983"/>
		<path fill="#00FFB0" d="M172.918,141.689c0,6.621-5.362,11.982-11.981,11.982c-6.621,0-11.985-5.361-11.985-11.982
			c0-3.595,1.59-6.802,4.076-8.987c0.717-0.658,1.527-1.196,2.395-1.648c1.646-0.866,3.535-1.347,5.515-1.347
			C167.556,129.707,172.918,135.066,172.918,141.689z"/>
		<path fill="#00FFB0" d="M175.975,72.786h-18.036h-11.983H121.99H98.022H74.058H50.091H39.274c-5.872,0-10.875,4.223-11.834,10.007
			l-1.318,25.943c0,0.599,0,2.995,0,2.995h23.968h23.967h23.965v-20.97h23.968v20.97h23.965h23.969l11.982,11.983h11.983V111.73
			l-6.411-30.406C185.951,76.261,181.277,72.786,175.975,72.786z"/>
	</g>
	<g>
		
			<rect x="14.134" y="153.763" transform="matrix(-1 0.0024 -0.0024 -1 100.5471 313.3977)" fill="#000A64" width="71.902" height="5.992"/>
		<rect x="92.032" y="153.673" fill="#000A64" width="11.983" height="5.99"/>
		<rect x="110.007" y="153.673" fill="#000A64" width="77.891" height="5.99"/>
		<rect x="193.89" y="153.673" fill="#000A64" width="11.983" height="5.99"/>
		<path fill="#000A64" d="M176.022,69.789h-15.821h-0.606l-6.421-9.631l-25.684,9.631h-2.455h-5.992h-17.975h-5.993h-7.385
			l-6.42-9.631l-25.683,9.631h-2.454h-5.991h-7.82c-7.366,0-13.589,5.263-14.79,12.514l-1.356,26.432v5.992v29.959h18.277
			c1.392,6.827,7.441,11.982,14.676,11.982c7.235,0,13.282-5.155,14.677-11.982h24.269h5.993h17.973h5.992h21.271
			c1.395,6.827,7.441,11.982,14.677,11.982c7.234,0,13.285-5.155,14.677-11.982h21.273v-17.977v-2.996v-2.994v-8.988l-6.54-31.272
			C188.467,74.076,182.69,69.789,176.022,69.789z M78.92,67.439l1.568,2.351H77.1H72.65L78.92,67.439z M53.134,75.783H71.11v32.953
			H53.134V75.783z M30.474,83.126c0.782-4.266,4.48-7.343,8.853-7.343h0.284h7.532v32.953H29.169L30.474,83.126z M56.129,150.679
			c-4.954,0-8.987-4.032-8.987-8.987c0-4.957,4.033-8.988,8.987-8.988c4.956,0,8.988,4.031,8.988,8.988
			C65.118,146.646,61.084,150.679,56.129,150.679z M95.076,138.693H70.807c0-0.004-0.002-0.006-0.002-0.01
			c-0.014-0.055-0.038-0.102-0.048-0.154c-0.186-0.863-0.45-1.696-0.777-2.496c-0.117-0.283-0.272-0.545-0.407-0.818
			c-0.267-0.552-0.539-1.093-0.869-1.604c-0.193-0.297-0.407-0.567-0.621-0.85c-0.335-0.447-0.679-0.882-1.063-1.289
			c-0.252-0.266-0.513-0.516-0.782-0.764c-0.401-0.373-0.82-0.717-1.264-1.042c-0.294-0.218-0.591-0.429-0.902-0.627
			c-0.476-0.298-0.97-0.558-1.479-0.804c-0.317-0.151-0.63-0.316-0.96-0.447c-0.574-0.229-1.174-0.398-1.781-0.555
			c-0.296-0.078-0.582-0.185-0.887-0.239c-0.922-0.181-1.873-0.289-2.846-0.289c-0.975,0-1.923,0.108-2.847,0.289
			c-0.306,0.06-0.586,0.161-0.886,0.239c-0.608,0.154-1.207,0.326-1.783,0.555c-0.329,0.131-0.641,0.292-0.958,0.447
			c-0.509,0.246-1.003,0.506-1.479,0.804c-0.313,0.198-0.606,0.409-0.903,0.627c-0.44,0.325-0.859,0.669-1.263,1.042
			c-0.271,0.248-0.53,0.498-0.783,0.764c-0.38,0.407-0.728,0.84-1.062,1.289c-0.209,0.281-0.43,0.553-0.621,0.85
			c-0.33,0.511-0.602,1.051-0.868,1.604c-0.135,0.273-0.291,0.535-0.408,0.818c-0.33,0.8-0.591,1.633-0.776,2.496
			c-0.012,0.054-0.036,0.101-0.047,0.154c0,0.004-0.004,0.006-0.004,0.01H29.167v-14.979h8.986v-5.989h-8.986v-2.998h17.974h5.991
			h17.976H77.1h17.976V138.693L95.076,138.693z M95.076,87.765v5.992v14.978H77.1V75.783h14.587h3.388L95.076,87.765L95.076,87.765z
			 M119.041,108.735v5.992v23.967h-17.973v-23.967v-5.992V93.757h17.973V108.735z M119.041,87.765h-17.973V75.783h10.438h7.535
			V87.765z M155.777,75.783l5.068,16.476l5.068,16.477h-3.176h-13.74V75.783H155.777z M150.822,67.439l1.566,2.351h-3.391h-4.446
			L150.822,67.439z M125.035,93.757v-5.992V75.783h17.973v32.953h-17.973V93.757z M160.982,150.679
			c-4.953,0-8.986-4.032-8.986-8.987c0-2.571,1.115-5.031,3.105-6.782c0.482-0.441,1.066-0.845,1.77-1.202
			c1.242-0.657,2.666-1.004,4.111-1.004c4.955,0,8.987,4.031,8.987,8.988C169.97,146.646,165.938,150.679,160.982,150.679z
			 M190.941,138.693H175.66c0-0.004-0.002-0.006-0.002-0.01c-0.013-0.055-0.035-0.104-0.051-0.16c-0.184-0.86-0.447-1.69-0.773-2.49
			c-0.117-0.286-0.275-0.551-0.412-0.829c-0.262-0.546-0.535-1.082-0.861-1.593c-0.191-0.297-0.41-0.57-0.623-0.854
			c-0.335-0.445-0.68-0.878-1.063-1.285c-0.25-0.266-0.51-0.516-0.78-0.764c-0.399-0.373-0.821-0.717-1.265-1.042
			c-0.295-0.218-0.586-0.429-0.898-0.624c-0.477-0.298-0.973-0.561-1.482-0.807c-0.317-0.151-0.625-0.314-0.955-0.444
			c-0.574-0.229-1.178-0.397-1.785-0.556c-0.297-0.077-0.577-0.18-0.885-0.239c-0.922-0.181-1.871-0.288-2.846-0.288
			c-2.421,0-4.805,0.583-6.886,1.686c-1.146,0.59-2.175,1.299-3.002,2.061c-0.55,0.486-1.048,1.018-1.515,1.572
			c-0.11,0.13-0.22,0.262-0.324,0.394c-0.445,0.563-0.859,1.146-1.219,1.761c-0.026,0.047-0.047,0.09-0.067,0.135
			c-0.334,0.584-0.615,1.19-0.864,1.813c-0.063,0.155-0.126,0.312-0.186,0.47c-0.243,0.661-0.446,1.342-0.594,2.03
			c-0.006,0.022-0.017,0.046-0.019,0.067h-21.271V114.73h17.974h5.991h18.762h0.971l11.982,11.982h10.229V138.693L190.941,138.693z
			 M177.203,114.727h4.752c0.566,0,1.113,0.066,1.648,0.17c0.169,0.028,0.329,0.076,0.492,0.119c0.37,0.094,0.73,0.198,1.079,0.336
			c0.17,0.065,0.336,0.133,0.5,0.209c0.351,0.16,0.688,0.348,1.016,0.551c0.122,0.078,0.255,0.146,0.374,0.229
			c0.432,0.301,0.84,0.63,1.211,0.998c0.063,0.061,0.111,0.132,0.172,0.194c0.303,0.315,0.584,0.655,0.836,1.016
			c0.099,0.138,0.186,0.281,0.274,0.422c0.197,0.314,0.377,0.646,0.534,0.982c0.068,0.157,0.143,0.309,0.205,0.468
			c0.039,0.096,0.059,0.201,0.094,0.301h-7.197L177.203,114.727z M190.541,111.48c-0.232-0.166-0.48-0.306-0.726-0.459
			c-0.521-0.32-1.05-0.613-1.604-0.872c-0.283-0.132-0.564-0.255-0.858-0.368c-0.583-0.229-1.185-0.406-1.802-0.562
			c-0.273-0.068-0.541-0.152-0.823-0.207c-0.901-0.171-1.821-0.281-2.771-0.281h-9.772l-5.067-16.476l-5.068-16.478h1.54h12.438
			c4.008,0,7.479,2.573,8.572,6.159l6.271,29.744C190.765,111.605,190.649,111.552,190.541,111.48z"/>
		<rect x="53.146" y="138.693" fill="#000A64" width="5.991" height="5.992"/>
		<rect x="157.998" y="138.693" fill="#000A64" width="5.994" height="5.992"/>
	</g>
</g>
</svg>
