<?xml version="1.0" encoding="utf-8"?>
<!-- Generator: Adobe Illustrator 16.0.0, SVG Export Plug-In . SVG Version: 6.00 Build 0)  -->
<!DOCTYPE svg PUBLIC "-//W3C//DTD SVG 1.1//EN" "http://www.w3.org/Graphics/SVG/1.1/DTD/svg11.dtd">
<svg version="1.1" id="Layer_1" xmlns="http://www.w3.org/2000/svg" xmlns:xlink="http://www.w3.org/1999/xlink" x="0px" y="0px"
	 width="220px" height="132px" viewBox="0 44.5 220 132" enable-background="new 0 44.5 220 132" xml:space="preserve">
<g>
	<g>
		<circle fill="#00FFB0" cx="55.309" cy="129.792" r="11.933"/>
		<path fill="#00FFB0" d="M159.717,117.859c6.59,0,11.933,5.344,11.933,11.934c0,6.593-5.343,11.933-11.933,11.933
			c-6.593,0-11.933-5.34-11.933-11.933C147.784,123.203,153.124,117.859,159.717,117.859z"/>
		<polygon fill="#00FFB0" points="97.071,99.962 141.819,99.962 120.935,76.097 97.071,76.097 		"/>
		<path fill="#00FFB0" d="M37.41,99.962h-5.967c-3.28,0-5.966,2.686-5.966,5.967v5.967H37.41V99.962z"/>
		<path fill="#00FFB0" d="M162.698,99.962l11.932,11.934h14.678c-0.775-1.761-2.297-3.491-3.759-4.952
			c-4.325-4.296-10.29-6.982-16.886-6.982H162.698L162.698,99.962z"/>
	</g>
	<g>
		
			<rect x="13.546" y="141.815" transform="matrix(-1 0.0029 -0.0029 -1 99.105 289.4534)" fill="#000A64" width="71.594" height="5.966"/>
		<rect x="91.105" y="141.726" fill="#000A64" width="11.933" height="5.966"/>
		<rect x="109.004" y="141.726" fill="#000A64" width="77.56" height="5.966"/>
		<rect x="192.528" y="141.726" fill="#000A64" width="11.934" height="5.966"/>
		<path fill="#000A64" d="M192.085,110.692c-0.018-0.041-0.049-0.083-0.067-0.125c-0.032-0.059-0.053-0.118-0.089-0.18l-0.031-0.057
			c-0.816-1.695-2.143-3.452-4.197-5.508c-5.098-5.058-11.84-7.845-18.986-7.845h-4.732h-8.437h-9.726h-2.6l-20.884-23.864h-22.235
			h-5.966H28.51v24.414c-3.464,1.234-5.968,4.516-5.968,8.399v2.983v5.968v17.898h18.2c1.386,6.796,7.41,11.931,14.614,11.931
			c7.204,0,13.227-5.135,14.614-11.931h75.18c1.387,6.796,7.409,11.931,14.612,11.931c7.205,0,13.228-5.135,14.612-11.931h21.184
			v-8.951c0-4.6-1.205-9.109-3.451-13.09L192.085,110.692z M183.344,108.912h-7.431l-5.926-5.927
			C175.007,103.286,179.709,105.365,183.344,108.912z M100.101,79.081h19.528l15.659,17.898h-35.188V79.081z M100.101,102.946
			h37.809l-4.26,14.913h-33.549V102.946L100.101,102.946z M34.476,79.081h59.66v17.898H40.441h-5.965V79.081z M28.51,105.928
			c0-1.644,1.333-2.982,2.982-2.982h2.983v5.966H28.51V105.928z M55.356,138.743c-4.935,0-8.95-4.016-8.95-8.95
			c0-4.934,4.015-8.948,8.95-8.948c4.933,0,8.948,4.016,8.948,8.948C64.304,134.728,60.289,138.743,55.356,138.743z
			 M159.763,138.743c-4.934,0-8.947-4.016-8.947-8.95c0-4.934,4.014-8.948,8.947-8.948s8.95,4.016,8.95,8.948
			C168.713,134.728,164.696,138.743,159.763,138.743z M189.594,126.812h-15.219c0-0.004-0.001-0.008-0.001-0.01
			c-0.012-0.054-0.034-0.105-0.047-0.16c-0.188-0.857-0.448-1.685-0.773-2.479c-0.115-0.286-0.273-0.55-0.408-0.828
			c-0.263-0.543-0.535-1.077-0.857-1.583c-0.191-0.294-0.411-0.57-0.623-0.851c-0.332-0.444-0.676-0.873-1.055-1.28
			c-0.252-0.264-0.511-0.512-0.779-0.758c-0.399-0.372-0.815-0.717-1.26-1.04c-0.289-0.22-0.584-0.429-0.893-0.621
			c-0.477-0.298-0.973-0.556-1.479-0.802c-0.315-0.151-0.623-0.313-0.951-0.444c-0.573-0.229-1.172-0.396-1.776-0.552
			c-0.298-0.079-0.577-0.18-0.883-0.239c-0.917-0.178-1.864-0.284-2.833-0.284s-1.916,0.106-2.833,0.284
			c-0.302,0.062-0.585,0.16-0.88,0.239c-0.605,0.158-1.206,0.324-1.778,0.552c-0.327,0.131-0.635,0.293-0.95,0.444
			c-0.509,0.246-1.004,0.504-1.477,0.802c-0.313,0.192-0.605,0.407-0.896,0.621c-0.438,0.323-0.854,0.668-1.259,1.04
			c-0.269,0.246-0.528,0.494-0.778,0.758c-0.379,0.404-0.724,0.836-1.058,1.28c-0.21,0.28-0.43,0.557-0.62,0.851
			c-0.324,0.504-0.595,1.039-0.859,1.583c-0.135,0.278-0.289,0.542-0.406,0.828c-0.326,0.796-0.59,1.626-0.771,2.479
			c-0.012,0.055-0.037,0.106-0.048,0.16c0,0.002-0.004,0.006-0.004,0.01h-75.17c0-0.004-0.001-0.008-0.001-0.01
			c-0.011-0.054-0.035-0.105-0.048-0.16c-0.186-0.857-0.447-1.685-0.772-2.479c-0.116-0.286-0.275-0.55-0.409-0.828
			c-0.263-0.543-0.534-1.077-0.86-1.583c-0.189-0.294-0.408-0.57-0.619-0.851c-0.336-0.444-0.677-0.873-1.056-1.28
			c-0.252-0.264-0.511-0.512-0.78-0.758c-0.4-0.372-0.816-0.717-1.259-1.04c-0.293-0.22-0.585-0.429-0.894-0.621
			c-0.475-0.298-0.971-0.556-1.478-0.802c-0.316-0.151-0.621-0.313-0.951-0.444c-0.572-0.229-1.171-0.396-1.777-0.552
			c-0.295-0.079-0.577-0.18-0.88-0.239c-0.92-0.178-1.865-0.284-2.833-0.284c-0.972,0-1.916,0.106-2.836,0.284
			c-0.301,0.062-0.585,0.16-0.879,0.239c-0.605,0.158-1.206,0.324-1.778,0.552c-0.329,0.131-0.637,0.293-0.953,0.444
			c-0.508,0.246-1.002,0.504-1.475,0.802c-0.311,0.192-0.604,0.407-0.897,0.621c-0.437,0.323-0.855,0.668-1.258,1.04
			c-0.269,0.246-0.529,0.494-0.778,0.758c-0.378,0.404-0.723,0.836-1.056,1.28c-0.212,0.28-0.43,0.557-0.622,0.851
			c-0.325,0.504-0.597,1.039-0.857,1.583c-0.136,0.278-0.293,0.542-0.408,0.828c-0.326,0.796-0.589,1.626-0.773,2.479
			c-0.011,0.055-0.036,0.106-0.048,0.16c0,0.002-0.003,0.006-0.003,0.01H28.51v-11.934h11.93v-11.933h53.695v20.881h44.013
			l5.971-20.881h4.324h13.07l11.934,11.933h14.121c1.348,2.787,2.027,5.786,2.027,8.948L189.594,126.812L189.594,126.812z"/>
		<rect x="52.385" y="126.812" fill="#000A64" width="5.966" height="5.967"/>
		<rect x="156.79" y="126.812" fill="#000A64" width="5.967" height="5.967"/>
	</g>
</g>
</svg>
