<?xml version="1.0" encoding="utf-8"?>
<!-- Generator: Adobe Illustrator 16.0.0, SVG Export Plug-In . SVG Version: 6.00 Build 0)  -->
<!DOCTYPE svg PUBLIC "-//W3C//DTD SVG 1.1//EN" "http://www.w3.org/Graphics/SVG/1.1/DTD/svg11.dtd">
<svg version="1.1" id="Layer_1" xmlns="http://www.w3.org/2000/svg" xmlns:xlink="http://www.w3.org/1999/xlink" x="0px" y="0px"
	 width="220px" height="132px" viewBox="0 44 220 132" enable-background="new 0 44 220 132" xml:space="preserve">
<g>
	<g>
		<circle fill="#00FFB0" cx="56.144" cy="138.853" r="11.929"/>
		<circle fill="#00FFB0" cx="160.522" cy="138.853" r="11.929"/>
		<path fill="#00FFB0" d="M38.25,109.03h23.858h32.805h32.805h41.75l11.93,11.93h11.93c0-6.592-5.34-11.93-11.93-11.93h-8.947
			l-29.822-29.821h-14.91H94.913H62.107H32.286l-5.637,33.907c-0.209,0.597-0.328,1.223-0.328,1.88v5.964h11.928L38.25,109.03
			L38.25,109.03z"/>
	</g>
	<g>
		
			<rect x="14.394" y="150.871" transform="matrix(-1 0.0029 -0.0029 -1 100.8076 307.5612)" fill="#000A64" width="71.575" height="5.965"/>
		<rect x="91.931" y="150.781" fill="#000A64" width="11.929" height="5.966"/>
		<rect x="109.824" y="150.781" fill="#000A64" width="77.539" height="5.966"/>
		<rect x="193.327" y="150.781" fill="#000A64" width="11.928" height="5.966"/>
		<rect x="53.221" y="135.869" fill="#000A64" width="5.964" height="5.966"/>
		<rect x="157.599" y="135.869" fill="#000A64" width="5.964" height="5.966"/>
		<path fill="#000A64" d="M181.444,106.049h-7.711l-28.074-28.074V64.297H29.352v14.664l-5.588,33.641
			c-0.233,0.789-0.376,1.592-0.376,2.396v2.981v5.963v17.895h18.195c1.387,6.797,7.407,11.932,14.609,11.932
			c7.203,0,13.224-5.135,14.611-11.932h75.159c1.386,6.797,7.406,11.932,14.608,11.932s13.224-5.135,14.61-11.932h21.178v-17.895
			v-2.98l-0.303-2.982l0,0C194.667,111.182,188.646,106.049,181.444,106.049z M179.698,112.014h1.746
			c3.889,0,7.205,2.492,8.438,5.965h-7.203l-5.965-5.965H179.698z M165.298,106.049h-2.98h-1.918h-7.329h-22.321V82.191h10.692
			L165.298,106.049z M148.811,112.014l-10.649,14.91h-7.412v-14.91H148.811L148.811,112.014z M35.315,70.261h104.379v5.965h-8.945
			h-5.967h-26.84h-5.965H65.139h-5.965H35.315V70.261z M97.942,106.049V82.191h26.84v23.857L97.942,106.049L97.942,106.049z
			 M124.782,112.014v14.91h-26.84v-14.91H124.782L124.782,112.014z M91.978,82.191v23.857H65.139V82.191H91.978z M34.862,82.191
			h24.311v23.857H41.279h-5.964h-2.982c-0.49,0-0.972,0.042-1.443,0.118c-0.003,0-0.01,0-0.013,0L34.862,82.191z M29.352,115.261
			l0.229-1.303c0.42-1.146,1.533-1.944,2.753-1.944h2.982v5.965h-5.964V115.261z M56.19,147.8c-4.932,0-8.946-4.013-8.946-8.946
			s4.014-8.945,8.946-8.945c4.934,0,8.948,4.013,8.948,8.945C65.139,143.787,61.125,147.8,56.19,147.8z M160.569,147.8
			c-4.932,0-8.947-4.013-8.947-8.946s4.017-8.945,8.947-8.945c4.934,0,8.947,4.013,8.947,8.945
			C169.517,143.787,165.501,147.8,160.569,147.8z M190.394,135.869H175.18c0-0.002-0.005-0.003-0.005-0.008
			c-0.012-0.053-0.034-0.104-0.047-0.157c-0.185-0.859-0.446-1.685-0.771-2.481c-0.115-0.287-0.275-0.549-0.406-0.826
			c-0.264-0.543-0.535-1.076-0.861-1.584c-0.19-0.295-0.407-0.568-0.621-0.85c-0.334-0.443-0.676-0.874-1.055-1.279
			c-0.25-0.267-0.511-0.513-0.779-0.759c-0.397-0.372-0.816-0.714-1.258-1.039c-0.291-0.219-0.586-0.427-0.895-0.622
			c-0.475-0.298-0.969-0.556-1.477-0.801c-0.315-0.152-0.623-0.313-0.95-0.443c-0.574-0.229-1.175-0.396-1.778-0.552
			c-0.295-0.079-0.576-0.18-0.88-0.239c-0.918-0.179-1.862-0.287-2.833-0.287c-0.968,0-1.914,0.108-2.833,0.287
			c-0.302,0.061-0.584,0.16-0.88,0.239c-0.605,0.156-1.205,0.323-1.775,0.552c-0.33,0.131-0.638,0.291-0.953,0.443
			c-0.506,0.245-1,0.503-1.477,0.801c-0.311,0.195-0.604,0.406-0.895,0.622c-0.438,0.325-0.855,0.667-1.26,1.039
			c-0.269,0.246-0.527,0.492-0.777,0.759c-0.379,0.401-0.721,0.836-1.057,1.279c-0.211,0.28-0.43,0.555-0.619,0.85
			c-0.326,0.504-0.598,1.039-0.858,1.584c-0.136,0.277-0.292,0.539-0.409,0.826c-0.325,0.797-0.587,1.625-0.771,2.481
			c-0.013,0.054-0.035,0.104-0.049,0.157c0,0.005-0.002,0.006-0.002,0.008H70.801c0-0.002-0.003-0.003-0.003-0.008
			c-0.012-0.053-0.035-0.104-0.047-0.157c-0.186-0.859-0.448-1.685-0.772-2.481c-0.116-0.287-0.274-0.549-0.409-0.826
			c-0.263-0.543-0.533-1.076-0.859-1.584c-0.191-0.295-0.407-0.568-0.62-0.85c-0.334-0.443-0.677-0.874-1.056-1.279
			c-0.25-0.267-0.51-0.513-0.778-0.759c-0.4-0.372-0.817-0.714-1.258-1.039c-0.293-0.219-0.585-0.427-0.895-0.622
			c-0.474-0.298-0.969-0.556-1.476-0.801c-0.316-0.152-0.624-0.313-0.951-0.443c-0.573-0.229-1.172-0.396-1.778-0.552
			c-0.294-0.079-0.575-0.18-0.879-0.239c-0.918-0.179-1.864-0.287-2.833-0.287c-0.97,0-1.915,0.108-2.834,0.287
			c-0.301,0.061-0.584,0.16-0.879,0.239c-0.606,0.156-1.205,0.323-1.778,0.552c-0.328,0.131-0.634,0.291-0.951,0.443
			c-0.508,0.245-1.002,0.503-1.476,0.801c-0.31,0.195-0.603,0.406-0.895,0.622c-0.438,0.325-0.856,0.667-1.258,1.039
			c-0.269,0.246-0.528,0.492-0.779,0.759c-0.378,0.401-0.721,0.836-1.055,1.279c-0.211,0.28-0.429,0.555-0.62,0.85
			c-0.324,0.504-0.596,1.039-0.859,1.584c-0.134,0.277-0.292,0.539-0.408,0.826c-0.325,0.797-0.588,1.625-0.773,2.481
			c-0.011,0.054-0.035,0.104-0.048,0.157c0,0.005-0.002,0.006-0.002,0.008H29.352v-11.928H41.28v-11.929h17.893h5.965h26.839v2.982
			H71.103v5.964h20.875v11.928h32.805h5.967h10.48l14.911-20.874h12.142l11.928,11.929h10.185L190.394,135.869L190.394,135.869z"/>
	</g>
</g>
</svg>
