<?xml version="1.0" encoding="utf-8"?>
<!-- Generator: Adobe Illustrator 16.0.0, SVG Export Plug-In . SVG Version: 6.00 Build 0)  -->
<!DOCTYPE svg PUBLIC "-//W3C//DTD SVG 1.1//EN" "http://www.w3.org/Graphics/SVG/1.1/DTD/svg11.dtd">
<svg version="1.1" id="Layer_1" xmlns="http://www.w3.org/2000/svg" xmlns:xlink="http://www.w3.org/1999/xlink" x="0px" y="0px"
	 width="220px" height="220px" viewBox="0 0 220 220" enable-background="new 0 0 220 220" xml:space="preserve">
<g>
	<g>
		<circle fill="#00FFB0" cx="54.44" cy="137.522" r="11.983"/>
		<path fill="#00FFB0" d="M171.277,137.522c0,6.62-5.362,11.982-11.981,11.982c-6.621,0-11.985-5.362-11.985-11.982
			c0-3.595,1.589-6.802,4.075-8.988c0.718-0.658,1.528-1.196,2.396-1.648c1.646-0.866,3.535-1.347,5.514-1.347
			C165.915,125.539,171.277,130.899,171.277,137.522z"/>
		<path fill="#00FFB0" d="M174.334,68.618h-18.036h-11.983h-23.966H96.382H72.417H48.45H37.634c-5.872,0-10.875,4.223-11.834,10.007
			l-1.318,25.943c0,0.599,0,2.995,0,2.995H48.45h23.967h23.965v-20.97h23.967v20.97h23.966h23.968l11.983,11.983h11.983v-11.983
			l-6.411-30.407C184.31,72.093,179.636,68.618,174.334,68.618z"/>
	</g>
	<g>
		
			<rect x="12.496" y="149.594" transform="matrix(1 -0.0024 0.0024 1 -0.3688 0.1176)" fill="#000A64" width="71.902" height="5.992"/>
		<rect x="90.391" y="149.505" fill="#000A64" width="11.983" height="5.99"/>
		<rect x="108.366" y="149.505" fill="#000A64" width="77.891" height="5.99"/>
		<rect x="192.249" y="149.505" fill="#000A64" width="11.983" height="5.99"/>
		<path fill="#000A64" d="M174.382,65.621h-15.821h-0.607l-6.421-9.631l-25.684,9.631h-2.455h-5.992H99.427h-5.993h-7.385
			l-6.42-9.631l-25.683,9.631h-2.454h-5.991h-7.82c-7.366,0-13.589,5.263-14.79,12.514l-1.356,26.432v5.991v29.959h18.277
			c1.392,6.828,7.441,11.983,14.676,11.983s13.282-5.155,14.677-11.983h24.269h5.993h17.974h5.992h21.271
			c1.395,6.828,7.441,11.983,14.677,11.983c7.234,0,13.285-5.155,14.677-11.983h21.273v-17.976v-2.996v-2.994v-8.989l-6.54-31.272
			C186.826,69.908,181.05,65.621,174.382,65.621z M77.28,63.271l1.568,2.351h-3.389H71.01L77.28,63.271z M51.493,71.615h17.976
			v32.953H51.493V71.615z M28.833,78.958c0.782-4.266,4.48-7.343,8.853-7.343h0.284h7.532v32.953H27.529L28.833,78.958z
			 M54.489,146.511c-4.954,0-8.987-4.033-8.987-8.988c0-4.956,4.033-8.988,8.987-8.988c4.956,0,8.988,4.032,8.988,8.988
			C63.477,142.478,59.444,146.511,54.489,146.511z M93.435,134.525H69.166c0-0.003-0.002-0.006-0.002-0.01
			c-0.014-0.054-0.038-0.101-0.048-0.153c-0.186-0.864-0.45-1.697-0.777-2.497c-0.117-0.283-0.272-0.545-0.407-0.818
			c-0.267-0.552-0.539-1.093-0.869-1.604c-0.193-0.296-0.407-0.567-0.621-0.849c-0.335-0.448-0.679-0.882-1.063-1.29
			c-0.252-0.265-0.513-0.515-0.782-0.763c-0.401-0.373-0.82-0.717-1.264-1.042c-0.294-0.218-0.591-0.429-0.902-0.627
			c-0.476-0.298-0.97-0.557-1.479-0.804c-0.317-0.151-0.63-0.316-0.96-0.447c-0.574-0.228-1.174-0.399-1.781-0.555
			c-0.296-0.078-0.582-0.184-0.887-0.239c-0.922-0.181-1.873-0.289-2.846-0.289c-0.975,0-1.923,0.108-2.847,0.289
			c-0.306,0.06-0.586,0.161-0.886,0.239c-0.608,0.155-1.207,0.327-1.783,0.555c-0.329,0.131-0.641,0.292-0.958,0.447
			c-0.509,0.247-1.003,0.506-1.479,0.804c-0.313,0.198-0.606,0.409-0.903,0.627c-0.44,0.325-0.859,0.669-1.263,1.042
			c-0.271,0.248-0.53,0.498-0.783,0.763c-0.38,0.408-0.728,0.84-1.062,1.29c-0.209,0.281-0.43,0.553-0.621,0.849
			c-0.33,0.511-0.602,1.051-0.868,1.604c-0.135,0.273-0.291,0.535-0.408,0.818c-0.33,0.8-0.591,1.633-0.776,2.497
			c-0.012,0.053-0.036,0.1-0.047,0.153c0,0.004-0.004,0.007-0.004,0.01H27.527v-14.979h8.986v-5.99h-8.986v-2.997h17.974h5.991
			h17.976h5.991h17.976V134.525L93.435,134.525z M93.435,83.597v5.992v14.978H75.459V71.615h14.587h3.388V83.597z M117.401,104.567
			v5.991v23.967H99.427v-23.967v-5.991V89.589h17.974V104.567z M117.401,83.597H99.427V71.615h10.438h7.536V83.597z M154.137,71.615
			l5.068,16.476l5.068,16.477h-3.176h-13.74V71.615H154.137z M149.182,63.271l1.566,2.351h-3.391h-4.446L149.182,63.271z
			 M123.394,89.589v-5.992V71.615h17.973v32.953h-17.973V89.589z M159.342,146.511c-4.953,0-8.987-4.033-8.987-8.988
			c0-2.571,1.115-5.031,3.106-6.782c0.482-0.441,1.067-0.844,1.769-1.202c1.243-0.657,2.666-1.004,4.112-1.004
			c4.955,0,8.987,4.032,8.987,8.988C168.329,142.478,164.297,146.511,159.342,146.511z M189.301,134.525h-15.282
			c0-0.003-0.001-0.006-0.001-0.01c-0.013-0.054-0.036-0.104-0.051-0.159c-0.184-0.861-0.448-1.691-0.774-2.491
			c-0.117-0.286-0.275-0.55-0.412-0.829c-0.262-0.546-0.535-1.082-0.861-1.593c-0.191-0.296-0.41-0.57-0.623-0.853
			c-0.335-0.446-0.68-0.878-1.062-1.286c-0.251-0.265-0.511-0.515-0.781-0.763c-0.4-0.373-0.821-0.717-1.264-1.042
			c-0.295-0.218-0.587-0.429-0.899-0.624c-0.476-0.298-0.973-0.56-1.482-0.807c-0.318-0.151-0.626-0.314-0.956-0.444
			c-0.574-0.23-1.177-0.398-1.784-0.556c-0.297-0.077-0.578-0.179-0.885-0.239c-0.922-0.181-1.872-0.288-2.846-0.288
			c-2.421,0-4.805,0.583-6.886,1.685c-1.146,0.591-2.174,1.3-3.002,2.061c-0.55,0.486-1.048,1.018-1.514,1.573
			c-0.111,0.129-0.22,0.261-0.324,0.393c-0.446,0.564-0.86,1.145-1.22,1.761c-0.026,0.046-0.046,0.09-0.067,0.135
			c-0.334,0.584-0.615,1.19-0.864,1.813c-0.062,0.155-0.126,0.311-0.186,0.47c-0.243,0.661-0.446,1.341-0.594,2.03
			c-0.005,0.023-0.016,0.046-0.018,0.067h-21.27v-23.967h17.973h5.991h18.762h0.971l11.983,11.983h10.228V134.525L189.301,134.525z
			 M175.563,110.559h4.751c0.567,0,1.114,0.066,1.649,0.169c0.169,0.029,0.329,0.077,0.492,0.119c0.37,0.094,0.73,0.199,1.079,0.337
			c0.17,0.065,0.336,0.133,0.5,0.209c0.351,0.16,0.689,0.347,1.016,0.55c0.122,0.078,0.255,0.146,0.374,0.229
			c0.431,0.301,0.84,0.63,1.211,0.998c0.062,0.06,0.111,0.132,0.171,0.194c0.303,0.316,0.585,0.656,0.837,1.016
			c0.098,0.138,0.185,0.281,0.274,0.422c0.197,0.314,0.377,0.645,0.534,0.982c0.069,0.157,0.142,0.309,0.205,0.468
			c0.039,0.096,0.059,0.201,0.094,0.301h-7.197L175.563,110.559z M188.901,107.313c-0.233-0.166-0.481-0.306-0.726-0.459
			c-0.52-0.321-1.05-0.614-1.604-0.872c-0.284-0.132-0.565-0.255-0.859-0.368c-0.583-0.228-1.184-0.406-1.802-0.561
			c-0.274-0.068-0.541-0.152-0.823-0.207c-0.901-0.171-1.822-0.281-2.771-0.281h-9.772l-5.068-16.476l-5.068-16.478h1.54h12.438
			c4.009,0,7.48,2.573,8.573,6.159l6.271,29.744C189.124,107.438,189.009,107.384,188.901,107.313z"/>
		<rect x="51.505" y="134.525" fill="#000A64" width="5.991" height="5.992"/>
		<rect x="156.357" y="134.525" fill="#000A64" width="5.994" height="5.992"/>
	</g>
</g>
</svg>
