<?xml version="1.0" encoding="utf-8"?>
<!-- Generator: Adobe Illustrator 16.0.0, SVG Export Plug-In . SVG Version: 6.00 Build 0)  -->
<!DOCTYPE svg PUBLIC "-//W3C//DTD SVG 1.1//EN" "http://www.w3.org/Graphics/SVG/1.1/DTD/svg11.dtd">
<svg version="1.1" id="Layer_1" xmlns="http://www.w3.org/2000/svg" xmlns:xlink="http://www.w3.org/1999/xlink" x="0px" y="0px"
	 width="220px" height="220px" viewBox="0 0 220 220" enable-background="new 0 0 220 220" xml:space="preserve">
<g>
	<g>
		<path fill="#00FFB0" d="M148.961,126.472c0,1.022,0.117,1.985,0.38,2.92c1.283,5.05,5.866,8.759,11.297,8.759
			c5.432,0,10.015-3.709,11.3-8.759c0.263-0.935,0.379-1.897,0.379-2.92c0-6.452-5.227-11.679-11.679-11.679
			C154.187,114.793,148.961,120.02,148.961,126.472z"/>
		<path fill="#00FFB0" d="M46.773,126.472c0,1.022,0.117,1.985,0.379,2.92c1.285,5.05,5.869,8.759,11.299,8.759
			c5.431,0,10.015-3.709,11.299-8.759c0.263-0.935,0.379-1.897,0.379-2.92c0-6.452-5.226-11.679-11.679-11.679
			C52,114.793,46.773,120.02,46.773,126.472z"/>
		<path fill="#00FFB0" d="M70.13,97.977l32.116,1.518l40.875,3.62l8.76-5.838l-14.6-8.759l-4.584-2.744
			c-6.539-3.942-14.043-6.015-21.692-6.015H96.407c-10.745,0-21.43,1.196-31.853,3.591c-4.613,1.021-9.168,2.305-13.664,3.794
			l-1.197,0.408l5.84,9.724L70.13,97.977z"/>
	</g>
	<g>
		
			<rect x="17.575" y="138.24" transform="matrix(1 -0.0024 0.0024 1 -0.3363 0.1258)" fill="#000A64" width="70.071" height="5.838"/>
		<rect x="93.487" y="138.15" fill="#000A64" width="11.68" height="5.84"/>
		<rect x="111.005" y="138.15" fill="#000A64" width="75.909" height="5.84"/>
		<rect x="192.755" y="138.15" fill="#000A64" width="11.678" height="5.84"/>
		<path fill="#000A64" d="M26.383,110.665v7.048c0,8.049,6.549,14.598,14.598,14.598h4.151c2.277,5.253,7.48,8.76,13.366,8.76
			c5.904,0,11.119-3.531,13.373-8.76h1.226h26.277h5.838h27.804h6.289h8.011c2.279,5.253,7.48,8.76,13.366,8.76
			c5.904,0,11.118-3.531,13.373-8.76h12.904c4.828,0,8.759-3.929,8.759-8.758v-15.808l-0.855-0.855
			c-6.129-6.13-14.259-9.938-22.896-10.723l-19.117-1.738l-18.601-11.155c-6.984-4.208-15.007-6.435-23.2-6.435H98.632h-2.178h-3.91
			l0.032,0.107c-8.814,0.234-17.57,1.253-26.127,3.057l-0.02-0.048L63.967,80.5l0,0c-0.005,0-0.015,0.002-0.02,0.002l-3.27,0.75
			l0.023,0.061c-3.163,0.787-6.377,1.685-9.653,2.746l-0.008-0.015l-0.652,0.216c-0.131,0.044-0.262,0.075-0.393,0.119l-1.183,0.406
			l-11.223,3.732H24.99l6.728,16.814L26.383,110.665z M140.248,114.232l-4.896,12.239h-30.14v-23.789l32.513,2.882l2.523,0.224
			V114.232L140.248,114.232z M169.182,128.547c-0.009,0.035-0.013,0.073-0.023,0.111l-0.01,0.032
			c-0.989,3.854-4.463,6.543-8.463,6.543c-4.006,0-7.486-2.698-8.487-6.631c-0.181-0.642-0.269-1.337-0.269-2.116
			c0-0.035,0.008-0.07,0.008-0.108c0.007-0.52,0.062-1.024,0.155-1.519c0.022-0.127,0.059-0.253,0.088-0.381
			c0.11-0.468,0.242-0.926,0.423-1.361c0.013-0.025,0.021-0.053,0.033-0.078c1.03-2.413,3.127-4.234,5.682-4.958
			c0.35-0.091,0.699-0.185,1.05-0.234c0.229-0.034,0.459-0.052,0.692-0.068c0.476-0.034,0.949-0.027,1.413,0.013
			c0.201,0.019,0.402,0.029,0.598,0.063c0.5,0.078,0.984,0.213,1.458,0.372c0.152,0.054,0.313,0.084,0.458,0.145
			c0.587,0.235,1.146,0.542,1.676,0.912c0.164,0.112,0.305,0.252,0.458,0.375c0.349,0.277,0.684,0.573,0.981,0.896
			c0.16,0.173,0.305,0.36,0.449,0.547c0.257,0.33,0.493,0.674,0.701,1.037c0.11,0.189,0.219,0.378,0.316,0.578
			c0.197,0.417,0.352,0.853,0.483,1.293c0.053,0.174,0.12,0.339,0.16,0.517c0.146,0.634,0.237,1.284,0.237,1.947
			C169.444,127.236,169.354,127.913,169.182,128.547z M171.44,101.981c4.519,0.412,8.862,1.822,12.751,4.053h-8.907v5.839h14.597
			v11.679c0,1.608-1.311,2.919-2.919,2.919h-11.678c0-0.892-0.109-1.763-0.267-2.625c-0.032-0.172-0.056-0.344-0.094-0.513
			c-0.175-0.794-0.418-1.569-0.722-2.318c-0.068-0.174-0.147-0.339-0.224-0.512c-0.693-1.54-1.647-2.951-2.833-4.179
			c-0.089-0.093-0.177-0.187-0.271-0.276c-0.535-0.522-1.095-1.022-1.714-1.463c-0.081-0.058-0.17-0.099-0.251-0.158
			c-0.078-0.052-0.16-0.1-0.24-0.147c-0.69-0.456-1.409-0.848-2.154-1.171c-0.075-0.035-0.148-0.073-0.228-0.109
			c-0.796-0.332-1.618-0.58-2.456-0.766c-0.148-0.031-0.297-0.061-0.448-0.089c-0.86-0.161-1.729-0.261-2.614-0.263
			c-0.028,0-0.054-0.009-0.084-0.009c-0.07,0-0.137,0.021-0.207,0.021c-0.861,0.011-1.729,0.099-2.594,0.263
			c-0.063,0.012-0.128,0.017-0.189,0.029c-0.694,0.14-1.389,0.311-2.076,0.548c-3.716,1.279-6.656,4.198-8.242,7.806
			c-0.093,0.209-0.174,0.426-0.259,0.642c-0.23,0.596-0.418,1.206-0.569,1.829c-0.066,0.271-0.14,0.53-0.19,0.805
			c-0.159,0.871-0.269,1.754-0.269,2.656h-4.446l4.446-11.117v-10.678l6.602-4.402L171.44,101.981z M111.051,82.678
			c7.134,0,14.111,1.935,20.195,5.6l15.224,9.126l-4.067,2.71l-37.191-3.293v-0.111l-0.707-0.033l-4.142-13.999H111.051
			L111.051,82.678z M99.374,102.28v24.191H73.097v-25.433l1.399,0.068v-0.003l5.5,0.26L99.374,102.28z M94.278,82.694l4.05,13.688
			l-18.855-0.89l-7.246-0.342l-3.685-9.667C76.967,83.765,85.602,82.83,94.278,82.694z M66.995,128.547
			c-0.009,0.035-0.011,0.073-0.023,0.111l-0.009,0.032c-0.99,3.854-4.464,6.543-8.464,6.543c-4.005,0-7.485-2.698-8.487-6.631
			c-0.184-0.647-0.271-1.342-0.271-2.127c0-4.829,3.929-8.76,8.758-8.76c4.83,0,8.759,3.931,8.759,8.76
			C67.257,127.236,67.167,127.913,66.995,128.547z M62.779,86.769l3.08,8.075l-8.581-0.413l-3.152-5.25
			C57.053,88.265,59.95,87.458,62.779,86.769z M32.222,113.083l4.129-4.129h4.63c4.829,0,8.759-3.929,8.759-8.758h-5.839
			c0,1.608-1.311,2.919-2.92,2.919h-3.863l-3.503-8.758h4.919l9.907-3.294l5.439,9.056l13.377,0.642v14.042
			c-0.111-0.085-0.242-0.146-0.356-0.229c-0.243-0.173-0.499-0.32-0.753-0.479c-0.49-0.304-0.993-0.58-1.519-0.825
			c-0.285-0.135-0.572-0.26-0.87-0.377c-0.561-0.219-1.139-0.392-1.731-0.537c-0.277-0.07-0.542-0.154-0.823-0.208
			c-0.879-0.167-1.778-0.273-2.707-0.273c-8.049,0-14.597,6.549-14.597,14.598h-2.92c-4.829,0-8.759-3.929-8.759-8.759V113.083z"/>
		<rect x="157.777" y="123.553" fill="#000A64" width="5.84" height="5.839"/>
		<rect x="55.591" y="123.553" fill="#000A64" width="5.839" height="5.839"/>
	</g>
</g>
</svg>
